<?xml version="1.0" encoding="UTF-8" standalone="no"?>
<!-- Created with Inkscape (http://www.inkscape.org/) -->

<svg
   xmlns:dc="http://purl.org/dc/elements/1.1/"
   xmlns:cc="http://creativecommons.org/ns#"
   xmlns:rdf="http://www.w3.org/1999/02/22-rdf-syntax-ns#"
   xmlns:svg="http://www.w3.org/2000/svg"
   xmlns="http://www.w3.org/2000/svg"
   xmlns:xlink="http://www.w3.org/1999/xlink"
   xmlns:sodipodi="http://sodipodi.sourceforge.net/DTD/sodipodi-0.dtd"
   xmlns:inkscape="http://www.inkscape.org/namespaces/inkscape"
   id="svg2"
   version="1.1"
   inkscape:version="0.48.2 r9819"
   width="283.88416"
   height="283.7941"
   xml:space="preserve"
   sodipodi:docname="czt7.svgz"><metadata
     id="metadata8"><rdf:RDF><cc:Work
         rdf:about=""><dc:format>image/svg+xml</dc:format><dc:type
           rdf:resource="http://purl.org/dc/dcmitype/StillImage" /><dc:title></dc:title></cc:Work></rdf:RDF></metadata><defs
     id="defs6"><linearGradient
       id="linearGradient192143"><stop
         style="stop-color:#1d354e;stop-opacity:1;"
         offset="0"
         id="stop192145" /><stop
         style="stop-color:#1b7ee2;stop-opacity:1;"
         offset="1"
         id="stop192147" /></linearGradient><linearGradient
       id="linearGradient191886"><stop
         style="stop-color:#296eb3;stop-opacity:1;"
         offset="0"
         id="stop191888" /><stop
         style="stop-color:#234c75;stop-opacity:1;"
         offset="1"
         id="stop191890" /></linearGradient><linearGradient
       x1="0"
       y1="0"
       x2="1"
       y2="0"
       gradientUnits="userSpaceOnUse"
       gradientTransform="matrix(-4.0689697,208.62331,208.62331,4.068985,879.42578,1805.2876)"
       spreadMethod="pad"
       id="linearGradient51522"><stop
         style="stop-opacity:1;stop-color:#808184"
         offset="0"
         id="stop51524" /><stop
         style="stop-opacity:1;stop-color:#a5a8ab"
         offset="1"
         id="stop51526" /></linearGradient><clipPath
       clipPathUnits="userSpaceOnUse"
       id="clipPath51534"><path
         d="m 0,2560 1536,0 L 1536,0 0,0 0,2560 z"
         id="path51536"
         inkscape:connector-curvature="0" /></clipPath><clipPath
       clipPathUnits="userSpaceOnUse"
       id="clipPath51542"><path
         d="m 773.972,2013.11 206.689,0 0,-202.4 -206.689,0 0,202.4 z"
         id="path51544"
         inkscape:connector-curvature="0" /></clipPath><linearGradient
       x1="0"
       y1="0"
       x2="1"
       y2="0"
       gradientUnits="userSpaceOnUse"
       gradientTransform="matrix(-2.549942,130.73996,130.73996,2.549942,878.66504,1843.1348)"
       spreadMethod="pad"
       id="linearGradient51614"><stop
         style="stop-color:#656669;stop-opacity:1;"
         offset="0"
         id="stop51616" /><stop
         style="stop-color:#8f9194;stop-opacity:1;"
         offset="1"
         id="stop51618" /></linearGradient><clipPath
       clipPathUnits="userSpaceOnUse"
       id="clipPath51634"><path
         d="m 818.843,1972.86 115.952,0 0,-36.21 -115.952,0 0,36.21 z"
         id="path51636"
         inkscape:connector-curvature="0" /></clipPath><linearGradient
       inkscape:collect="always"
       xlink:href="#linearGradient51522"
       id="linearGradient181932"
       gradientUnits="userSpaceOnUse"
       gradientTransform="matrix(-4.0689697,208.62331,208.62331,4.068985,879.42578,1805.2876)"
       spreadMethod="pad"
       x1="0"
       y1="0"
       x2="1"
       y2="0" /><linearGradient
       inkscape:collect="always"
       xlink:href="#linearGradient191886"
       id="linearGradient191892"
       x1="172.05084"
       y1="230.02444"
       x2="172.05084"
       y2="74.03743"
       gradientUnits="userSpaceOnUse" /><filter
       id="filter191936"
       inkscape:label="Drop shadow"
       width="1.5"
       height="1.5"
       x="-0.25"
       y="-0.25"
       color-interpolation-filters="sRGB"><feGaussianBlur
         id="feGaussianBlur191938"
         in="SourceAlpha"
         stdDeviation="1"
         result="blur" /><feColorMatrix
         id="feColorMatrix191940"
         result="bluralpha"
         type="matrix"
         values="1 0 0 0 0 0 1 0 0 0 0 0 1 0 0 0 0 0 1 0 " /><feOffset
         id="feOffset191942"
         in="bluralpha"
         dx="0"
         dy="0"
         result="offsetBlur" /><feMerge
         id="feMerge191944"
         result="fbSourceGraphic"><feMergeNode
           id="feMergeNode191946"
           in="offsetBlur" /><feMergeNode
           id="feMergeNode191948"
           in="SourceGraphic" /></feMerge><feColorMatrix
         result="fbSourceGraphicAlpha"
         in="fbSourceGraphic"
         values="0 0 0 -1 0 0 0 0 -1 0 0 0 0 -1 0 0 0 0 1 0"
         id="feColorMatrix191964" /><feGaussianBlur
         id="feGaussianBlur191966"
         in="fbSourceGraphicAlpha"
         stdDeviation="1"
         result="blur" /><feColorMatrix
         id="feColorMatrix191968"
         result="bluralpha"
         type="matrix"
         values="1 0 0 0 0 0 1 0 0 0 0 0 1 0 0 0 0 0 0.5 0 " /><feOffset
         id="feOffset191970"
         in="bluralpha"
         dx="0"
         dy="0"
         result="offsetBlur" /><feMerge
         id="feMerge191972"><feMergeNode
           id="feMergeNode191974"
           in="offsetBlur" /><feMergeNode
           id="feMergeNode191976"
           in="fbSourceGraphic" /></feMerge></filter><linearGradient
       inkscape:collect="always"
       xlink:href="#linearGradient192143"
       id="linearGradient192149"
       x1="167.5"
       y1="96.904205"
       x2="124.5"
       y2="217.92059"
       gradientUnits="userSpaceOnUse" /><clipPath
       clipPathUnits="userSpaceOnUse"
       id="clipPath192252"><g
         id="g192254"
         transform="translate(-3e-6,17.599799)"><g
           id="g192256"><g
             id="g192258"><g
               id="g192260"><path
                 id="path192262"
                 style="fill:url(#linearGradient192264);stroke:none"
                 d="m 858.44,2007.972 c -1.911,-15.524 -4.905,-31.532 -24.218,-8.055 l 0,0 c -4.175,5.059 -21.865,-6.205 -19.551,-12.35 l 0,0 c 5.528,-14.633 10.319,-30.18 -17.68,-18.387 l 0,0 c -6.048,2.546 -16.48,-15.662 -11.571,-20.016 l 0,0 c 11.689,-10.39 23.156,-21.936 -7.123,-24.508 l 0,0 c -6.538,-0.552 -7.317,-21.535 -0.943,-23.088 l 0,0 c 15.193,-3.75 30.704,-8.647 5.099,-25.009 l 0,0 c -5.533,-3.525 3.525,-22.446 9.901,-20.881 l 0,0 c 15.186,3.719 31.205,6.586 16.108,-19.786 l 0,0 c -3.242,-5.682 13.568,-18.236 18.478,-13.888 l 0,0 c 11.71,10.334 24.557,20.323 23.466,-10.029 l 0,0 c -0.242,-6.543 20.495,-9.851 22.811,-3.718 l 0,0 c 5.545,14.6 12.273,29.426 25.443,2.052 l 0,0 c 2.843,-5.914 22.703,0.779 21.933,7.277 l 0,0 c -1.896,15.531 -2.832,31.775 21.554,13.651 l 0,0 c 5.267,-3.917 19.733,11.238 16.013,16.658 l 0,0 c -8.869,12.87 -17.228,26.833 12.798,22.081 l 0,0 c 6.482,-1.032 12.245,19.156 6.429,22.206 l 0,0 c -13.846,7.282 -27.739,15.751 1.058,25.488 l 0,0 c 6.22,2.108 1.942,22.66 -4.623,22.656 l 0,0 c -15.642,0 -31.877,1.05 -10.923,23.049 l 0,0 c 4.519,4.751 -8.797,20.961 -14.606,17.921 l 0,0 c -13.863,-7.259 -28.724,-13.884 -20.385,15.34 l 0,0 c 1.783,6.303 -17.529,14.462 -21.259,9.081 l 0,0 c -8.899,-12.867 -18.993,-25.643 -25.181,4.107 l 0,0 c -0.577,2.769 -4.799,4.016 -9.474,4.016 l 0,0 c -6.161,0 -13.111,-2.165 -13.554,-5.868 m -26.029,-99.25 c -0.487,24.842 19.257,45.373 44.099,45.858 l 0,0 c 24.844,0.485 45.373,-19.259 45.86,-44.102 l 0,0 c 0.487,-24.842 -19.26,-45.373 -44.101,-45.856 l 0,0 c -0.301,-0.01 -0.602,-0.01 -0.901,-0.01 l 0,0 c -24.434,-10e-4 -44.48,19.567 -44.957,44.109"
                 inkscape:connector-curvature="0" /></g></g></g></g></clipPath><linearGradient
       inkscape:collect="always"
       xlink:href="#linearGradient51522"
       id="linearGradient192264"
       gradientUnits="userSpaceOnUse"
       gradientTransform="matrix(-4.0689697,208.62331,208.62331,4.068985,879.42578,1805.2876)"
       spreadMethod="pad"
       x1="0"
       y1="0"
       x2="1"
       y2="0" /><linearGradient
       inkscape:collect="always"
       xlink:href="#linearGradient51614"
       id="linearGradient192289"
       gradientUnits="userSpaceOnUse"
       gradientTransform="matrix(-3.0599304,156.88795,156.88795,3.0599304,878.91984,1830.0609)"
       spreadMethod="pad"
       x1="0"
       y1="0"
       x2="1"
       y2="0" /><filter
       id="filter192301"
       inkscape:label="Inner Shadow"
       inkscape:menu="Shadows and Glows"
       inkscape:menu-tooltip="Adds a colorizable drop shadow inside"
       color-interpolation-filters="sRGB"
       x="0"
       width="1"
       height="1"
       y="0"><feGaussianBlur
         id="feGaussianBlur192303"
         stdDeviation="2"
         result="result8" /><feOffset
         id="feOffset192305"
         dx="1"
         dy="-2"
         result="result11" /><feComposite
         id="feComposite192307"
         in2="result11"
         result="result6"
         in="SourceGraphic"
         operator="in" /><feFlood
         id="feFlood192309"
         result="result10"
         in="result6"
         flood-opacity="0.20000000000000001"
         flood-color="rgb(0,0,0)" /><feBlend
         id="feBlend192311"
         in2="result10"
         mode="normal"
         in="result6"
         result="result12" /><feComposite
         id="feComposite192313"
         in2="SourceGraphic"
         result="result2"
         operator="in" /></filter><filter
       id="filter192662"
       inkscape:label="Drop shadow"
       width="1.5"
       height="1.5"
       x="-0.25"
       y="-0.25"
       color-interpolation-filters="sRGB"><feGaussianBlur
         id="feGaussianBlur192664"
         in="SourceAlpha"
         stdDeviation="1"
         result="blur" /><feColorMatrix
         id="feColorMatrix192666"
         result="bluralpha"
         type="matrix"
         values="1 0 0 0 0 0 1 0 0 0 0 0 1 0 0 0 0 0 0.6 0 " /><feOffset
         id="feOffset192668"
         in="bluralpha"
         dx="1"
         dy="-1"
         result="offsetBlur" /><feMerge
         id="feMerge192670"><feMergeNode
           id="feMergeNode192672"
           in="offsetBlur" /><feMergeNode
           id="feMergeNode192674"
           in="SourceGraphic" /></feMerge></filter><linearGradient
       inkscape:collect="always"
       xlink:href="#linearGradient51522"
       id="linearGradient5754"
       gradientUnits="userSpaceOnUse"
       gradientTransform="matrix(-5.0862121,-260.77914,260.77914,-5.0862312,153.07969,280.6905)"
       spreadMethod="pad"
       x1="0"
       y1="0"
       x2="1"
       y2="0" /><linearGradient
       inkscape:collect="always"
       xlink:href="#linearGradient51522"
       id="linearGradient5937"
       gradientUnits="userSpaceOnUse"
       gradientTransform="matrix(-5.0862121,-260.77914,260.77914,-5.0862312,153.07969,280.6905)"
       spreadMethod="pad"
       x1="0"
       y1="0"
       x2="1"
       y2="0" /><linearGradient
       inkscape:collect="always"
       xlink:href="#linearGradient51522"
       id="linearGradient5943"
       gradientUnits="userSpaceOnUse"
       gradientTransform="matrix(-5.0862121,-260.77914,260.77914,-5.0862312,153.07969,280.6905)"
       spreadMethod="pad"
       x1="0"
       y1="0"
       x2="1"
       y2="0" /><linearGradient
       inkscape:collect="always"
       xlink:href="#linearGradient51522"
       id="linearGradient5948"
       gradientUnits="userSpaceOnUse"
       gradientTransform="matrix(-5.0862121,-260.77914,260.77914,-5.0862312,153.07969,280.6905)"
       spreadMethod="pad"
       x1="0"
       y1="0"
       x2="1"
       y2="0" /><linearGradient
       inkscape:collect="always"
       xlink:href="#linearGradient51522"
       id="linearGradient5952"
       gradientUnits="userSpaceOnUse"
       gradientTransform="matrix(-5.0862121,-260.77914,260.77914,-5.0862312,153.07969,280.6905)"
       spreadMethod="pad"
       x1="0"
       y1="0"
       x2="1"
       y2="0" /><linearGradient
       inkscape:collect="always"
       xlink:href="#linearGradient51522"
       id="linearGradient5955"
       gradientUnits="userSpaceOnUse"
       gradientTransform="matrix(-4.0689697,208.62331,208.62331,4.068985,879.42577,1805.2876)"
       spreadMethod="pad"
       x1="0"
       y1="0"
       x2="1"
       y2="0" /><clipPath
       clipPathUnits="userSpaceOnUse"
       id="clipPath5961"><path
         inkscape:connector-curvature="0"
         style="fill:url(#linearGradient5965);stroke:none"
         d="m 871.98702,2013.84 c -6.161,0 -13.107,-2.172 -13.55,-5.875 -1.911,-15.524 -4.912,-31.527 -24.225,-8.05 -4.175,5.059 -21.864,-6.205 -19.55,-12.35 5.528,-14.633 10.324,-30.168 -17.675,-18.375 -6.048,2.546 -16.484,-15.671 -11.575,-20.025 11.689,-10.39 23.154,-21.928 -7.125,-24.5 -6.538,-0.552 -7.299,-21.547 -0.925,-23.1 15.193,-3.75 30.705,-8.638 5.1,-25 -5.533,-3.525 3.524,-22.44 9.9,-20.875 15.186,3.719 31.197,6.572 16.1,-19.8 -3.242,-5.682 13.565,-18.223 18.475,-13.875 11.71,10.334 24.566,20.302 23.475,-10.05 -0.242,-6.543 20.484,-9.833 22.8,-3.7 5.545,14.6 12.28,29.424 25.45,2.05 2.843,-5.914 22.695,0.777 21.925,7.275 -1.896,15.531 -2.836,31.774 21.55,13.65 5.267,-3.917 19.745,11.23 16.025,16.65 -8.869,12.87 -17.226,26.827 12.8,22.075 6.482,-1.032 12.241,19.175 6.425,22.225 -13.846,7.282 -27.747,15.738 1.05,25.475 6.22,2.108 1.94,22.654 -4.625,22.65 -15.642,0 -31.879,1.051 -10.925,23.05 4.519,4.751 -8.791,20.965 -14.6,17.925 -13.863,-7.259 -28.714,-13.874 -20.375,15.35 1.783,6.303 -17.545,14.456 -21.275,9.075 -8.899,-12.867 -18.987,-25.65 -25.175,4.1 -0.577,2.769 -4.8,4.025 -9.475,4.025 z m 3.6,-42.825 c 0.54207,0.014 1.07962,0 1.625,0 34.9044,0 63.2,-28.2956 63.2,-63.2 0,-34.9044 -28.2956,-63.2 -63.2,-63.2 -34.9044,0 -63.2,28.2956 -63.2,63.2 0,34.359 27.4245,62.3348 61.575,63.2 z"
         id="path5963" /></clipPath><linearGradient
       inkscape:collect="always"
       xlink:href="#linearGradient51522"
       id="linearGradient5965"
       gradientUnits="userSpaceOnUse"
       gradientTransform="matrix(-4.0689697,208.62331,208.62331,4.068985,879.42577,1805.2876)"
       spreadMethod="pad"
       x1="0"
       y1="0"
       x2="1"
       y2="0" /><linearGradient
       inkscape:collect="always"
       xlink:href="#linearGradient51522"
       id="linearGradient5967"
       gradientUnits="userSpaceOnUse"
       gradientTransform="matrix(-5.0862121,-260.77914,260.77914,-5.0862312,153.07969,280.6905)"
       spreadMethod="pad"
       x1="0"
       y1="0"
       x2="1"
       y2="0" /><linearGradient
       inkscape:collect="always"
       xlink:href="#linearGradient51522"
       id="linearGradient5972"
       gradientUnits="userSpaceOnUse"
       gradientTransform="matrix(-5.0862121,-260.77914,260.77914,-5.0862312,153.07969,280.6905)"
       spreadMethod="pad"
       x1="0"
       y1="0"
       x2="1"
       y2="0" /><linearGradient
       inkscape:collect="always"
       xlink:href="#linearGradient51522"
       id="linearGradient5976"
       gradientUnits="userSpaceOnUse"
       gradientTransform="matrix(-5.0862121,-260.77914,260.77914,-5.0862312,153.07969,280.6905)"
       spreadMethod="pad"
       x1="0"
       y1="0"
       x2="1"
       y2="0" /><linearGradient
       inkscape:collect="always"
       xlink:href="#linearGradient51522"
       id="linearGradient5979"
       gradientUnits="userSpaceOnUse"
       gradientTransform="matrix(-4.0689697,208.62331,208.62331,4.068985,879.42577,1805.2876)"
       spreadMethod="pad"
       x1="0"
       y1="0"
       x2="1"
       y2="0" /><filter
       id="filter5989"
       inkscape:label="Drop shadow"
       width="1.01"
       height="1.01"
       x="0"
       y="0"
       color-interpolation-filters="sRGB"><feGaussianBlur
         id="feGaussianBlur5991"
         in="SourceAlpha"
         stdDeviation="0.5"
         result="blur" /><feColorMatrix
         id="feColorMatrix5993"
         result="bluralpha"
         type="matrix"
         values="1 0 0 0 0 0 1 0 0 0 0 0 1 0 0 0 0 0 0.6 0 " /><feOffset
         id="feOffset5995"
         in="bluralpha"
         dx="1"
         dy="-1"
         result="offsetBlur" /><feMerge
         id="feMerge5997"><feMergeNode
           id="feMergeNode5999"
           in="offsetBlur" /><feMergeNode
           id="feMergeNode6001"
           in="SourceGraphic" /></feMerge></filter><filter
       id="filter6312"
       inkscape:label="Drop shadow"
       width="1.5"
       height="1.5"
       x="-0.25"
       y="-0.25"
       color-interpolation-filters="sRGB"><feGaussianBlur
         id="feGaussianBlur6314"
         in="SourceAlpha"
         stdDeviation="5"
         result="blur" /><feColorMatrix
         id="feColorMatrix6316"
         result="bluralpha"
         type="matrix"
         values="1 0 0 0 0 0 1 0 0 0 0 0 1 0 0 0 0 0 0.8 0 " /><feOffset
         id="feOffset6318"
         in="bluralpha"
         dx="0"
         dy="0"
         result="offsetBlur" /><feMerge
         id="feMerge6320"><feMergeNode
           id="feMergeNode6322"
           in="offsetBlur" /><feMergeNode
           id="feMergeNode6324"
           in="SourceGraphic" /></feMerge></filter><filter
       inkscape:collect="always"
       id="filter6330"
       color-interpolation-filters="sRGB"><feGaussianBlur
         inkscape:collect="always"
         stdDeviation="0.74824219"
         id="feGaussianBlur6332" /></filter><linearGradient
       inkscape:collect="always"
       xlink:href="#linearGradient51522"
       id="linearGradient6334"
       gradientUnits="userSpaceOnUse"
       gradientTransform="matrix(-4.0689697,208.62331,208.62331,4.068985,879.42577,1805.2876)"
       spreadMethod="pad"
       x1="0"
       y1="0"
       x2="1"
       y2="0" /><linearGradient
       inkscape:collect="always"
       xlink:href="#linearGradient51614"
       id="linearGradient6336"
       gradientUnits="userSpaceOnUse"
       gradientTransform="matrix(-3.0599304,156.88795,156.88795,3.0599304,878.91984,1830.0609)"
       spreadMethod="pad"
       x1="0"
       y1="0"
       x2="1"
       y2="0" /><linearGradient
       inkscape:collect="always"
       xlink:href="#linearGradient51614"
       id="linearGradient6338"
       gradientUnits="userSpaceOnUse"
       gradientTransform="matrix(-3.0599304,156.88795,156.88795,3.0599304,878.91984,1830.0609)"
       spreadMethod="pad"
       x1="0"
       y1="0"
       x2="1"
       y2="0" /><linearGradient
       inkscape:collect="always"
       xlink:href="#linearGradient51522"
       id="linearGradient6342"
       gradientUnits="userSpaceOnUse"
       gradientTransform="matrix(-4.0689697,208.62331,208.62331,4.068985,879.42577,1805.2876)"
       spreadMethod="pad"
       x1="0"
       y1="0"
       x2="1"
       y2="0" /><linearGradient
       inkscape:collect="always"
       xlink:href="#linearGradient51614"
       id="linearGradient6344"
       gradientUnits="userSpaceOnUse"
       gradientTransform="matrix(-3.0599304,156.88795,156.88795,3.0599304,878.91984,1830.0609)"
       spreadMethod="pad"
       x1="0"
       y1="0"
       x2="1"
       y2="0" /></defs><sodipodi:namedview
     pagecolor="#ffffff"
     bordercolor="#666666"
     borderopacity="1"
     objecttolerance="10"
     gridtolerance="10"
     guidetolerance="10"
     inkscape:pageopacity="0"
     inkscape:pageshadow="2"
     inkscape:window-width="1680"
     inkscape:window-height="938"
     id="namedview4"
     showgrid="false"
     inkscape:zoom="1"
     inkscape:cx="130.04759"
     inkscape:cy="115.89788"
     inkscape:window-x="0"
     inkscape:window-y="0"
     inkscape:window-maximized="1"
     inkscape:current-layer="g10"
     fit-margin-top="10"
     fit-margin-left="10"
     fit-margin-right="10"
     fit-margin-bottom="9" /><g
     inkscape:groupmode="layer"
     id="layer2"
     inkscape:label="inside"
     style="display:inline"
     transform="translate(-9.9998944,-6.7371252)"><path
       sodipodi:type="arc"
       style="fill:url(#linearGradient192149);fill-opacity:1;stroke:none"
       id="path192133"
       sodipodi:cx="157.5"
       sodipodi:cy="158.40421"
       sodipodi:rx="60.5"
       sodipodi:ry="60.5"
       d="m 218,158.40421 c 0,33.41322 -27.08677,60.5 -60.5,60.5 -33.41323,0 -60.5,-27.08678 -60.5,-60.5 0,-33.41323 27.08677,-60.500005 60.5,-60.500005 33.41323,0 60.5,27.086775 60.5,60.500005 z"
       transform="matrix(1.4710744,0,0,1.4710744,-81.375788,-82.50714)" /></g><g
     id="g10"
     inkscape:groupmode="layer"
     inkscape:label="gear"
     transform="matrix(1.25,0,0,-1.25,-956.20241,2530.5629)"><g
       id="g6023"
       transform="matrix(0.99999875,0,0,1,0.40106081,-0.39982907)"><path
         style="fill:#b2b2b2;fill-opacity:1;stroke:none"
         d="m 871.98702,2013.84 c -6.161,0 -13.107,-2.172 -13.55,-5.875 -1.911,-15.524 -4.912,-31.527 -24.225,-8.05 -4.175,5.059 -21.864,-6.205 -19.55,-12.35 5.528,-14.633 10.324,-30.168 -17.675,-18.375 -6.048,2.546 -16.484,-15.671 -11.575,-20.025 11.689,-10.39 23.154,-21.928 -7.125,-24.5 -6.538,-0.552 -7.299,-21.547 -0.925,-23.1 15.193,-3.75 30.705,-8.638 5.1,-25 -5.533,-3.525 3.524,-22.44 9.9,-20.875 15.186,3.719 31.197,6.572 16.1,-19.8 -3.242,-5.682 13.565,-18.223 18.475,-13.875 11.71,10.334 24.566,20.302 23.475,-10.05 -0.242,-6.543 20.484,-9.833 22.8,-3.7 5.545,14.6 12.28,29.424 25.45,2.05 2.843,-5.914 22.695,0.777 21.925,7.275 -1.896,15.531 -2.836,31.774 21.55,13.65 5.267,-3.917 19.745,11.23 16.025,16.65 -8.869,12.87 -17.226,26.827 12.8,22.075 6.482,-1.032 12.241,19.175 6.425,22.225 -13.846,7.282 -27.747,15.738 1.05,25.475 6.22,2.108 1.94,22.654 -4.625,22.65 -15.642,0 -31.879,1.051 -10.925,23.05 4.519,4.751 -8.791,20.965 -14.6,17.925 -13.863,-7.259 -28.714,-13.874 -20.375,15.35 1.783,6.303 -17.545,14.456 -21.275,9.075 -8.899,-12.867 -18.987,-25.65 -25.175,4.1 -0.577,2.769 -4.8,4.025 -9.475,4.025 z m 3.6,-42.825 c 0.54207,0.014 1.07962,0 1.625,0 34.9044,0 63.2,-28.2956 63.2,-63.2 0,-34.9044 -28.2956,-63.2 -63.2,-63.2 -34.9044,0 -63.2,28.2956 -63.2,63.2 0,34.359 27.4245,62.3348 61.575,63.2 z"
         id="path6025"
         inkscape:connector-curvature="0" /></g><g
       id="g51510"><path
         inkscape:connector-curvature="0"
         id="path51528"
         d="m 871.98702,2013.84 c -6.161,0 -13.107,-2.172 -13.55,-5.875 -1.911,-15.524 -4.912,-31.527 -24.225,-8.05 -4.175,5.059 -21.864,-6.205 -19.55,-12.35 5.528,-14.633 10.324,-30.168 -17.675,-18.375 -6.048,2.546 -16.484,-15.671 -11.575,-20.025 11.689,-10.39 23.154,-21.928 -7.125,-24.5 -6.538,-0.552 -7.299,-21.547 -0.925,-23.1 15.193,-3.75 30.705,-8.638 5.1,-25 -5.533,-3.525 3.524,-22.44 9.9,-20.875 15.186,3.719 31.197,6.572 16.1,-19.8 -3.242,-5.682 13.565,-18.223 18.475,-13.875 11.71,10.334 24.566,20.302 23.475,-10.05 -0.242,-6.543 20.484,-9.833 22.8,-3.7 5.545,14.6 12.28,29.424 25.45,2.05 2.843,-5.914 22.695,0.777 21.925,7.275 -1.896,15.531 -2.836,31.774 21.55,13.65 5.267,-3.917 19.745,11.23 16.025,16.65 -8.869,12.87 -17.226,26.827 12.8,22.075 6.482,-1.032 12.241,19.175 6.425,22.225 -13.846,7.282 -27.747,15.738 1.05,25.475 6.22,2.108 1.94,22.654 -4.625,22.65 -15.642,0 -31.879,1.051 -10.925,23.05 4.519,4.751 -8.791,20.965 -14.6,17.925 -13.863,-7.259 -28.714,-13.874 -20.375,15.35 1.783,6.303 -17.545,14.456 -21.275,9.075 -8.899,-12.867 -18.987,-25.65 -25.175,4.1 -0.577,2.769 -4.8,4.025 -9.475,4.025 z m 3.6,-42.825 c 0.54207,0.014 1.07962,0 1.625,0 34.9044,0 63.2,-28.2956 63.2,-63.2 0,-34.9044 -28.2956,-63.2 -63.2,-63.2 -34.9044,0 -63.2,28.2956 -63.2,63.2 0,34.359 27.4245,62.3348 61.575,63.2 z"
         style="fill:url(#linearGradient6342);stroke:none;filter:url(#filter5989)" /></g><g
       id="g51598"
       transform="translate(878.4395,1854.8213)"><path
         inkscape:connector-curvature="0"
         d="m 0.20550349,-10.517407 c -34.85160049,-0.6804 -63.65640049,27.0216 -64.33680049,61.872 -0.684,34.8516 27.0192,63.656397 61.8696005,64.337997 34.8551995,0.6804 63.6599995,-27.020397 64.3403995,-61.873197 0.6804,-34.8504 -27.018,-63.6564001 -61.87319951,-64.3368 M -2.5592965,131.03099 C -45.882897,130.18379 -80.319297,94.378193 -79.470897,51.053393 c 0.8472,-43.3212001 36.6516,-77.7552 79.97400049,-76.9104 43.32599951,0.846 77.75999951,36.6564 76.91279951,79.9776 -0.846,43.3212 -36.6528,77.757597 -79.9751995,76.910397"
         style="fill:#6d6f71;fill-opacity:1;fill-rule:evenodd;stroke:none"
         id="path51600" /></g><g
       id="g51602"
       style="filter:url(#filter192301)"><g
         id="g5756"><g
           id="g5758"
           clip-path="url(#clipPath51534)"><g
             id="g5760"><g
               id="g5762" /><g
               id="g5764"><g
                 style="opacity:0.58999598"
                 clip-path="url(#clipPath51542)"
                 id="g5766"><g
                   transform="translate(922.0732,1909.1934)"
                   id="g5768"><path
                     inkscape:connector-curvature="0"
                     d="m 17.668806,0 c 0.266732,-34.344219 -26.8966642,-62.596888 -61.032804,-63.264417 -34.13614,-0.668925 -62.381822,26.504246 -63.459932,60.8331038 0,-0.2555602 -0.0112,-0.5097239 -0.004,-0.7638876 0.6759,-34.6933452 29.104532,-62.2701062 63.494835,-61.5983882 34.3917001,0.671719 61.719884,29.33915 61.03839,64.0310979 -0.0028,0.25695671 -0.02514,0.5083274 -0.03631,0.7624911"
                     style="fill:#f1f1f1;fill-opacity:1;fill-rule:evenodd;stroke:none"
                     id="path5770" /></g><g
                   transform="translate(815.1641,1850.8335)"
                   id="g5772"><path
                     inkscape:connector-curvature="0"
                     d="m 0,0 c -0.121,-3.418 -1.894,-8.438 -5.989,-15.658 -0.376,-0.663 -0.467,-1.419 -0.356,-2.231 0.054,0.403 0.178,0.782 0.378,1.135 C -1.409,-8.716 0.275,-3.407 0,0"
                     style="fill:#f1f1f1;fill-opacity:1;fill-rule:evenodd;stroke:none"
                     id="path5774" /></g><g
                   transform="translate(925.1982,1981.2988)"
                   id="g5776"><path
                     inkscape:connector-curvature="0"
                     d="M 0,0 C -0.013,-13.021 11.597,-7.643 22.589,-1.839 27.366,0.684 37.275,-10.061 37.935,-16.501 38.45,-10.285 27.63,1.931 22.568,-0.743 11.894,-6.38 0.632,-11.624 0,0"
                     style="fill:#f1f1f1;fill-opacity:1;fill-rule:evenodd;stroke:none"
                     id="path5778" /></g><g
                   transform="translate(952.4297,1946.001)"
                   id="g5780"><path
                     inkscape:connector-curvature="0"
                     d="m 0,0 c -0.457,-7.022 10.23,-7.513 20.669,-7.515 4.069,0.002 7.256,-8.039 7.562,-14.578 0.027,6.697 -3.283,15.676 -7.583,15.673 C 10.781,-6.417 0.689,-5.979 0,0"
                     style="fill:#f1f1f1;fill-opacity:1;fill-rule:evenodd;stroke:none"
                     id="path5782" /></g><g
                   transform="translate(850.8057,1815.7959)"
                   id="g5784"><path
                     inkscape:connector-curvature="0"
                     d="M 0,0 C 0.019,-1.409 0.008,-2.905 -0.05,-4.544 -0.058,-4.728 -0.043,-4.909 -0.017,-5.088 0.041,-3.242 0.043,-1.548 0,0"
                     style="fill:#f1f1f1;fill-opacity:1;fill-rule:evenodd;stroke:none"
                     id="path5786" /></g><g
                   transform="translate(783.4082,1874.7505)"
                   id="g5788"><path
                     inkscape:connector-curvature="0"
                     d="M 0,0 C 10.427,6.721 13.965,11.504 13.481,15.072 13.173,11.633 9.374,7.151 -0.021,1.096 -1.389,0.218 -1.857,-1.619 -1.69,-3.856 -1.643,-2.125 -1.137,-0.73 0,0"
                     style="fill:#f1f1f1;fill-opacity:1;fill-rule:evenodd;stroke:none"
                     id="path5790" /></g><g
                   transform="translate(919.5029,1826.2871)"
                   id="g5792"><path
                     inkscape:connector-curvature="0"
                     d="m 0,0 c 0.027,-3.162 0.389,-6.7 0.81,-10.221 0.037,0.262 0.048,0.523 0.017,0.783 C 0.439,-6.217 0.092,-2.969 0,0"
                     style="fill:#f1f1f1;fill-opacity:1;fill-rule:evenodd;stroke:none"
                     id="path5794" /></g><g
                   transform="translate(949.4453,1863.2466)"
                   id="g5796"><path
                     inkscape:connector-curvature="0"
                     d="m 0,0 c -0.228,-4.495 3.895,-10.965 8.145,-17.192 0.301,-0.446 0.474,-0.963 0.548,-1.524 0.085,1 -0.078,1.899 -0.573,2.62 C 4.208,-10.361 0.399,-4.415 0,0"
                     style="fill:#f1f1f1;fill-opacity:1;fill-rule:evenodd;stroke:none"
                     id="path5798" /></g><g
                   transform="translate(976.6211,1891.4346)"
                   id="g5800"><path
                     inkscape:connector-curvature="0"
                     d="M 0,0 C -7.482,3.973 -14.979,8.296 -15.627,12.983 -16.116,7.871 -8.041,3.183 0.021,-1.095 1.522,-1.889 2.24,-3.854 2.375,-6.296 2.414,-3.35 1.721,-0.911 0,0"
                     style="fill:#f1f1f1;fill-opacity:1;fill-rule:evenodd;stroke:none"
                     id="path5802" /></g><g
                   transform="translate(779.2744,1922.8477)"
                   id="g5804"><path
                     inkscape:connector-curvature="0"
                     d="M 0,0 C 15.054,1.289 19.696,4.834 19.125,9.359 18.829,5.362 13.795,2.276 -0.019,1.097 -3.683,0.786 -5.521,-6.057 -5.282,-12.227 -5.278,-6.37 -3.445,-0.292 0,0"
                     style="fill:#f1f1f1;fill-opacity:1;fill-rule:evenodd;stroke:none"
                     id="path5806" /></g><g
                   transform="translate(834.7031,1998.0996)"
                   id="g5808"><path
                     inkscape:connector-curvature="0"
                     d="m 0,0 c 19.149,-23.481 22.115,-7.475 24.007,8.049 0.773,6.516 21.5,8.266 22.827,1.849 6.142,-29.748 16.143,-16.976 24.962,-4.109 3.416,4.972 20.013,-1.62 21.12,-7.624 C 93.872,4.412 75.4,12.161 71.774,6.882 62.956,-5.983 52.953,-18.754 46.813,10.993 45.485,17.411 24.758,15.66 23.987,9.146 22.094,-6.38 19.129,-22.385 -0.021,1.096 -4.042,6.009 -20.684,-4.468 -19.547,-10.705 -18.816,-4.427 -3.793,4.636 0,0"
                     style="fill:#f1f1f1;fill-opacity:1;fill-rule:evenodd;stroke:none"
                     id="path5810" /></g><g
                   transform="translate(797.8027,1967.3701)"
                   id="g5812"><path
                     inkscape:connector-curvature="0"
                     d="M 0,0 C 17.527,-7.451 22.089,-3.99 21.69,3.252 21.561,-3.225 16.598,-5.969 -0.022,1.095 -5.109,3.255 -13.316,-9.522 -12.716,-16.103 -12.434,-9.306 -4.818,2.044 0,0"
                     style="fill:#f1f1f1;fill-opacity:1;fill-rule:evenodd;stroke:none"
                     id="path5814" /></g></g></g></g></g></g><g
         id="g51604"><g
           id="g51610"><g
             id="g51612"><path
               inkscape:connector-curvature="0"
               d="m 875.85619,1986.9492 c -43.3224,-0.846 -77.7528,-36.6552 -76.9092,-79.9788 l 0,0 c 0.846,-43.3212 36.6528,-77.7564 79.974,-76.9104 l 0,0 c 43.3248,0.8484 77.76,36.6528 76.914,79.9764 l 0,0 c -0.8376,42.7992 -35.8008,76.9236 -78.4188,76.9272 l 0,0 c -0.522,0 -1.0356,0 -1.56,-0.014 m -61.572,-79.6776 c -0.6816,34.8528 27.0204,63.6564 61.8732,64.338 l 0,0 c 34.854,0.6816 63.6552,-27.0216 64.3368,-61.8732 l 0,0 c 0.6804,-34.8516 -27.0168,-63.6564 -61.8708,-64.3392 l 0,0 c -0.4164,-0.012 -0.8376,-0.012 -1.2528,-0.012 l 0,0 c -34.2876,0 -62.4108,27.4512 -63.0864,61.8864"
               style="fill:url(#linearGradient6344);stroke:none"
               id="path51620" /></g></g></g></g><g
       id="g5846"><g
         id="g5848"
         clip-path="url(#clipPath51534)"><g
           style="opacity:0.58999598;stroke-width:0.80000001;stroke-miterlimit:4;stroke-dasharray:none"
           clip-path="url(#clipPath51542)"
           id="g5856"><g
             transform="matrix(1.4137431,0,0,1.4137431,940.51021,1909.1934)"
             id="g5858"
             style="stroke-width:0.80000001;stroke-miterlimit:4;stroke-dasharray:none"><path
               inkscape:connector-curvature="0"
               d="m 0,0 c 0.191,-24.593 -19.26,-44.824 -43.704,-45.302 -24.444,-0.479 -44.67,18.979 -45.442,43.561 0,-0.183 -0.008,-0.365 -0.003,-0.547 0.484,-24.843 20.841,-44.13739 45.467,-43.65639 C -19.055,-45.46339 0.514,-25.388 0.026,-0.546 0.024,-0.362 0.008,-0.182 0,0"
               style="fill:#f1f1f1;fill-opacity:1;fill-rule:evenodd;stroke:#ffffff;stroke-width:0;stroke-miterlimit:4;stroke-opacity:1;stroke-dasharray:none"
               id="path5860"
               sodipodi:nodetypes="ccccscc" /></g><g
             transform="translate(815.1641,1850.8335)"
             id="g5862"
             style="stroke-width:0.80000001;stroke-miterlimit:4;stroke-dasharray:none"><path
               inkscape:connector-curvature="0"
               d="m 0,0 c -0.121,-3.418 -1.894,-8.438 -5.989,-15.658 -0.376,-0.663 -0.467,-1.419 -0.356,-2.231 0.054,0.403 0.178,0.782 0.378,1.135 C -1.409,-8.716 0.275,-3.407 0,0"
               style="fill:#f1f1f1;fill-opacity:1;fill-rule:evenodd;stroke:none"
               id="path5864" /></g><g
             transform="translate(925.1982,1981.2988)"
             id="g5866"
             style="stroke-width:0.80000001;stroke-miterlimit:4;stroke-dasharray:none"><path
               inkscape:connector-curvature="0"
               d="M 0,0 C -0.013,-13.021 11.597,-7.643 22.589,-1.839 27.366,0.684 37.275,-10.061 37.935,-16.501 38.45,-10.285 27.63,1.931 22.568,-0.743 11.894,-6.38 0.632,-11.624 0,0"
               style="fill:#f1f1f1;fill-opacity:1;fill-rule:evenodd;stroke:none"
               id="path5868" /></g><g
             transform="translate(952.4297,1946.001)"
             id="g5870"
             style="stroke-width:0.80000001;stroke-miterlimit:4;stroke-dasharray:none"><path
               inkscape:connector-curvature="0"
               d="m 0,0 c -0.457,-7.022 10.23,-7.513 20.669,-7.515 4.069,0.002 7.256,-8.039 7.562,-14.578 0.027,6.697 -3.283,15.676 -7.583,15.673 C 10.781,-6.417 0.689,-5.979 0,0"
               style="fill:#f1f1f1;fill-opacity:1;fill-rule:evenodd;stroke:none"
               id="path5872" /></g><g
             transform="translate(850.8057,1815.7959)"
             id="g5874"
             style="stroke-width:0.80000001;stroke-miterlimit:4;stroke-dasharray:none"><path
               inkscape:connector-curvature="0"
               d="M 0,0 C 0.019,-1.409 0.008,-2.905 -0.05,-4.544 -0.058,-4.728 -0.043,-4.909 -0.017,-5.088 0.041,-3.242 0.043,-1.548 0,0"
               style="fill:#f1f1f1;fill-opacity:1;fill-rule:evenodd;stroke:none"
               id="path5876" /></g><g
             transform="translate(783.4082,1874.7505)"
             id="g5878"
             style="stroke-width:0.80000001;stroke-miterlimit:4;stroke-dasharray:none"><path
               inkscape:connector-curvature="0"
               d="M 0,0 C 10.427,6.721 13.965,11.504 13.481,15.072 13.173,11.633 9.374,7.151 -0.021,1.096 -1.389,0.218 -1.857,-1.619 -1.69,-3.856 -1.643,-2.125 -1.137,-0.73 0,0"
               style="fill:#f1f1f1;fill-opacity:1;fill-rule:evenodd;stroke:none"
               id="path5880" /></g><g
             transform="translate(919.5029,1826.2871)"
             id="g5882"
             style="stroke-width:0.80000001;stroke-miterlimit:4;stroke-dasharray:none"><path
               inkscape:connector-curvature="0"
               d="m 0,0 c 0.027,-3.162 0.389,-6.7 0.81,-10.221 0.037,0.262 0.048,0.523 0.017,0.783 C 0.439,-6.217 0.092,-2.969 0,0"
               style="fill:#f1f1f1;fill-opacity:1;fill-rule:evenodd;stroke:none"
               id="path5884" /></g><g
             transform="translate(949.4453,1863.2466)"
             id="g5886"
             style="stroke-width:0.80000001;stroke-miterlimit:4;stroke-dasharray:none"><path
               inkscape:connector-curvature="0"
               d="m 0,0 c -0.228,-4.495 3.895,-10.965 8.145,-17.192 0.301,-0.446 0.474,-0.963 0.548,-1.524 0.085,1 -0.078,1.899 -0.573,2.62 C 4.208,-10.361 0.399,-4.415 0,0"
               style="fill:#f1f1f1;fill-opacity:1;fill-rule:evenodd;stroke:none"
               id="path5888" /></g><g
             transform="translate(976.6211,1891.4346)"
             id="g5890"
             style="stroke-width:0.80000001;stroke-miterlimit:4;stroke-dasharray:none"><path
               inkscape:connector-curvature="0"
               d="M 0,0 C -7.482,3.973 -14.979,8.296 -15.627,12.983 -16.116,7.871 -8.041,3.183 0.021,-1.095 1.522,-1.889 2.24,-3.854 2.375,-6.296 2.414,-3.35 1.721,-0.911 0,0"
               style="fill:#f1f1f1;fill-opacity:1;fill-rule:evenodd;stroke:none"
               id="path5892" /></g><g
             transform="translate(779.2744,1922.8477)"
             id="g5894"
             style="stroke-width:0.80000001;stroke-miterlimit:4;stroke-dasharray:none"><path
               inkscape:connector-curvature="0"
               d="M 0,0 C 15.054,1.289 19.696,4.834 19.125,9.359 18.829,5.362 13.795,2.276 -0.019,1.097 -3.683,0.786 -5.521,-6.057 -5.282,-12.227 -5.278,-6.37 -3.445,-0.292 0,0"
               style="fill:#f1f1f1;fill-opacity:1;fill-rule:evenodd;stroke:none"
               id="path5896" /></g><g
             transform="translate(834.7031,1998.0996)"
             id="g5898"
             style="stroke-width:0.80000001;stroke-miterlimit:4;stroke-dasharray:none"><path
               inkscape:connector-curvature="0"
               d="m 0,0 c 19.149,-23.481 22.115,-7.475 24.007,8.049 0.773,6.516 21.5,8.266 22.827,1.849 6.142,-29.748 16.143,-16.976 24.962,-4.109 3.416,4.972 20.013,-1.62 21.12,-7.624 C 93.872,4.412 75.4,12.161 71.774,6.882 62.956,-5.983 52.953,-18.754 46.813,10.993 45.485,17.411 24.758,15.66 23.987,9.146 22.094,-6.38 19.129,-22.385 -0.021,1.096 -4.042,6.009 -20.684,-4.468 -19.547,-10.705 -18.816,-4.427 -3.793,4.636 0,0"
               style="fill:#f1f1f1;fill-opacity:1;fill-rule:evenodd;stroke:none"
               id="path5900" /></g><g
             transform="translate(797.8027,1967.3701)"
             id="g5902"
             style="stroke-width:0.80000001;stroke-miterlimit:4;stroke-dasharray:none"><path
               inkscape:connector-curvature="0"
               d="M 0,0 C 17.527,-7.451 22.089,-3.99 21.69,3.252 21.561,-3.225 16.598,-5.969 -0.022,1.095 -5.109,3.255 -13.316,-9.522 -12.716,-16.103 -12.434,-9.306 -4.818,2.044 0,0"
               style="fill:#f1f1f1;fill-opacity:1;fill-rule:evenodd;stroke:none"
               id="path5904" /></g></g></g></g></g><g
     style="opacity:0.1;display:inline"
     transform="matrix(1.25,0,0,-1.25,-956.20241,2530.5629)"
     inkscape:label="gear ovr"
     inkscape:groupmode="layer"
     id="g5777"><path
       id="path5957"
       d="m 871.98702,1997.84 c -6.161,0 -13.107,-2.172 -13.55,-5.875 -1.911,-15.524 -4.912,-31.527 -24.225,-8.05 -4.175,5.059 -21.864,-6.205 -19.55,-12.35 5.528,-14.633 10.324,-30.168 -17.675,-18.375 -6.048,2.546 -16.484,-15.671 -11.575,-20.025 11.689,-10.39 23.154,-21.928 -7.125,-24.5 -6.538,-0.552 -7.299,-21.547 -0.925,-23.1 15.193,-3.75 30.705,-8.638 5.1,-25 -5.533,-3.525 3.524,-22.44 9.9,-20.875 15.186,3.719 31.197,6.572 16.1,-19.8 -3.242,-5.682 13.565,-18.223 18.475,-13.875 11.71,10.334 24.566,20.302 23.475,-10.05 -0.242,-6.543 20.484,-9.833 22.8,-3.7 5.545,14.6 12.28,29.424 25.45,2.05 2.843,-5.914 22.695,0.777 21.925,7.275 -1.896,15.531 -2.836,31.774 21.55,13.65 5.267,-3.917 19.745,11.23 16.025,16.65 -8.869,12.87 -17.226,26.827 12.8,22.075 6.482,-1.032 12.241,19.175 6.425,22.225 -13.846,7.282 -27.747,15.738 1.05,25.475 6.22,2.108 1.94,22.654 -4.625,22.65 -15.642,0 -31.879,1.051 -10.925,23.05 4.519,4.751 -8.791,20.965 -14.6,17.925 -13.863,-7.259 -28.714,-13.874 -20.375,15.35 1.783,6.303 -17.545,14.456 -21.275,9.075 -8.899,-12.867 -18.987,-25.65 -25.175,4.1 -0.577,2.769 -4.8,4.025 -9.475,4.025 z m 3.6,-42.825 c 0.54207,0.014 1.07962,0 1.625,0 34.9044,0 63.2,-28.2956 63.2,-63.2 0,-34.9044 -28.2956,-63.2 -63.2,-63.2 -34.9044,0 -63.2,28.2956 -63.2,63.2 0,34.359 27.4245,62.3348 61.575,63.2 z"
       style="fill:#000000;fill-opacity:1;stroke:none"
       inkscape:connector-curvature="0"
       clip-path="url(#clipPath5961)" /></g><g
     style="display:none"
     transform="matrix(1.25,0,0,-1.25,-956.20241,2530.5629)"
     inkscape:label="gear copy"
     inkscape:groupmode="layer"
     id="g192436"><g
       transform="translate(878.291,1863.5254)"
       id="g192438"><path
         inkscape:connector-curvature="0"
         id="path192440"
         style="fill:#59595c;fill-opacity:1;fill-rule:evenodd;stroke:none"
         d="M 0,0 C -24.843,-0.486 -45.374,19.258 -45.859,44.1 -46.343,68.943 -26.6,89.475 -1.759,89.959 23.084,90.444 43.617,70.7 44.098,45.857 44.585,21.017 24.841,0.484 0,0 m 100.175,53.049 c 6.221,2.108 1.942,22.66 -4.622,22.656 -15.639,0.003 -31.876,1.051 -10.922,23.048 4.518,4.752 -8.802,20.962 -14.607,17.923 -13.863,-7.258 -28.725,-13.885 -20.385,15.339 1.783,6.304 -17.531,14.464 -21.26,9.08 -8.9,-12.867 -18.991,-25.642 -25.184,4.108 -1.334,6.418 -22.242,4.662 -23.024,-1.853 -1.911,-15.524 -4.905,-31.532 -24.218,-8.055 -4.176,5.059 -21.864,-6.205 -19.552,-12.349 5.529,-14.633 10.32,-30.179 -17.682,-18.387 -6.044,2.546 -16.479,-15.661 -11.569,-20.017 11.687,-10.39 23.159,-21.936 -7.123,-24.506 -6.54,-0.552 -7.316,-21.535 -0.941,-23.089 15.19,-3.752 30.702,-8.648 5.099,-25.008 -5.535,-3.526 3.527,-22.447 9.897,-20.883 15.186,3.72 31.206,6.587 16.108,-19.784 -3.237,-5.684 13.57,-18.239 18.481,-13.889 11.71,10.333 24.559,20.322 23.464,-10.028 -0.239,-6.544 20.498,-9.852 22.812,-3.72 5.546,14.6 12.274,29.428 25.444,2.052 2.843,-5.914 22.703,0.782 21.929,7.276 -1.895,15.533 -2.828,31.778 21.557,13.652 5.268,-3.916 19.734,11.239 16.015,16.658 -8.869,12.872 -17.23,26.834 12.796,22.081 6.481,-1.031 12.245,19.161 6.43,22.206 -13.847,7.282 -27.739,15.753 1.057,25.489" /></g><g
       id="g192442"><g
         id="g192444"><g
           id="g192446"><g
             id="g192448"><path
               id="path192450"
               style="fill:url(#linearGradient181932);stroke:none"
               d="m 858.44,2007.972 c -1.911,-15.524 -4.905,-31.532 -24.218,-8.055 l 0,0 c -4.175,5.059 -21.865,-6.205 -19.551,-12.35 l 0,0 c 5.528,-14.633 10.319,-30.18 -17.68,-18.387 l 0,0 c -6.048,2.546 -16.48,-15.662 -11.571,-20.016 l 0,0 c 11.689,-10.39 23.156,-21.936 -7.123,-24.508 l 0,0 c -6.538,-0.552 -7.317,-21.535 -0.943,-23.088 l 0,0 c 15.193,-3.75 30.704,-8.647 5.099,-25.009 l 0,0 c -5.533,-3.525 3.525,-22.446 9.901,-20.881 l 0,0 c 15.186,3.719 31.205,6.586 16.108,-19.786 l 0,0 c -3.242,-5.682 13.568,-18.236 18.478,-13.888 l 0,0 c 11.71,10.334 24.557,20.323 23.466,-10.029 l 0,0 c -0.242,-6.543 20.495,-9.851 22.811,-3.718 l 0,0 c 5.545,14.6 12.273,29.426 25.443,2.052 l 0,0 c 2.843,-5.914 22.703,0.779 21.933,7.277 l 0,0 c -1.896,15.531 -2.832,31.775 21.554,13.651 l 0,0 c 5.267,-3.917 19.733,11.238 16.013,16.658 l 0,0 c -8.869,12.87 -17.228,26.833 12.798,22.081 l 0,0 c 6.482,-1.032 12.245,19.156 6.429,22.206 l 0,0 c -13.846,7.282 -27.739,15.751 1.058,25.488 l 0,0 c 6.22,2.108 1.942,22.66 -4.623,22.656 l 0,0 c -15.642,0 -31.877,1.05 -10.923,23.049 l 0,0 c 4.519,4.751 -8.797,20.961 -14.606,17.921 l 0,0 c -13.863,-7.259 -28.724,-13.884 -20.385,15.34 l 0,0 c 1.783,6.303 -17.529,14.462 -21.259,9.081 l 0,0 c -8.899,-12.867 -18.993,-25.643 -25.181,4.107 l 0,0 c -0.577,2.769 -4.799,4.016 -9.474,4.016 l 0,0 c -6.161,0 -13.111,-2.165 -13.554,-5.868 m -26.029,-99.25 c -0.487,24.842 19.257,45.373 44.099,45.858 l 0,0 c 24.844,0.485 45.373,-19.259 45.86,-44.102 l 0,0 c 0.487,-24.842 -19.26,-45.373 -44.101,-45.856 l 0,0 c -0.301,-0.01 -0.602,-0.01 -0.901,-0.01 l 0,0 c -24.434,-10e-4 -44.48,19.567 -44.957,44.109"
               inkscape:connector-curvature="0" /></g></g></g></g><g
       clip-path="url(#clipPath192252)"
       style="fill:#000000;fill-opacity:0.05882353"
       transform="translate(3e-6,-17.599799)"
       label="gear-ovr"
       id="g192452"><g
         style="fill:#000000;fill-opacity:0.05882353"
         id="g192454"><g
           style="fill:#000000;fill-opacity:0.05882353"
           id="g192456"><g
             style="fill:#000000;fill-opacity:0.05882353"
             id="g192458"><path
               inkscape:connector-curvature="0"
               d="m 858.44,2007.972 c -1.911,-15.524 -4.905,-31.532 -24.218,-8.055 l 0,0 c -4.175,5.059 -21.865,-6.205 -19.551,-12.35 l 0,0 c 5.528,-14.633 10.319,-30.18 -17.68,-18.387 l 0,0 c -6.048,2.546 -16.48,-15.662 -11.571,-20.016 l 0,0 c 11.689,-10.39 23.156,-21.936 -7.123,-24.508 l 0,0 c -6.538,-0.552 -7.317,-21.535 -0.943,-23.088 l 0,0 c 15.193,-3.75 30.704,-8.647 5.099,-25.009 l 0,0 c -5.533,-3.525 3.525,-22.446 9.901,-20.881 l 0,0 c 15.186,3.719 31.205,6.586 16.108,-19.786 l 0,0 c -3.242,-5.682 13.568,-18.236 18.478,-13.888 l 0,0 c 11.71,10.334 24.557,20.323 23.466,-10.029 l 0,0 c -0.242,-6.543 20.495,-9.851 22.811,-3.718 l 0,0 c 5.545,14.6 12.273,29.426 25.443,2.052 l 0,0 c 2.843,-5.914 22.703,0.779 21.933,7.277 l 0,0 c -1.896,15.531 -2.832,31.775 21.554,13.651 l 0,0 c 5.267,-3.917 19.733,11.238 16.013,16.658 l 0,0 c -8.869,12.87 -17.228,26.833 12.798,22.081 l 0,0 c 6.482,-1.032 12.245,19.156 6.429,22.206 l 0,0 c -13.846,7.282 -27.739,15.751 1.058,25.488 l 0,0 c 6.22,2.108 1.942,22.66 -4.623,22.656 l 0,0 c -15.642,0 -31.877,1.05 -10.923,23.049 l 0,0 c 4.519,4.751 -8.797,20.961 -14.606,17.921 l 0,0 c -13.863,-7.259 -28.724,-13.884 -20.385,15.34 l 0,0 c 1.783,6.303 -17.529,14.462 -21.259,9.081 l 0,0 c -8.899,-12.867 -18.993,-25.643 -25.181,4.107 l 0,0 c -0.577,2.769 -4.799,4.016 -9.474,4.016 l 0,0 c -6.161,0 -13.111,-2.165 -13.554,-5.868 m -26.029,-99.25 c -0.487,24.842 19.257,45.373 44.099,45.858 l 0,0 c 24.844,0.485 45.373,-19.259 45.86,-44.102 l 0,0 c 0.487,-24.842 -19.26,-45.373 -44.101,-45.856 l 0,0 c -0.301,-0.01 -0.602,-0.01 -0.901,-0.01 l 0,0 c -24.434,-10e-4 -44.48,19.567 -44.957,44.109"
               style="fill:#000000;fill-opacity:0.05882353;stroke:none"
               id="path192460" /></g></g></g></g><g
       id="g192462"><g
         clip-path="url(#clipPath51534)"
         id="g192464"><g
           id="g192466"><g
             id="g192468" /><g
             id="g192470"><g
               id="g192472"
               clip-path="url(#clipPath51542)"
               style="opacity:0.58999598"><g
                 id="g192474"
                 transform="translate(922.0732,1909.1934)"><path
                   id="path192476"
                   style="fill:#f1f1f1;fill-opacity:1;fill-rule:evenodd;stroke:none"
                   d="m 0,0 c 0.191,-24.593 -19.26,-44.824 -43.704,-45.302 -24.444,-0.479 -44.67,18.979 -45.442,43.561 0,-0.183 -0.008,-0.365 -0.003,-0.547 0.484,-24.843 20.841,-44.59 45.467,-44.109 24.627,0.481 44.196,21.009 43.708,45.851 C 0.024,-0.362 0.008,-0.182 0,0"
                   inkscape:connector-curvature="0" /></g><g
                 id="g192478"
                 transform="translate(815.1641,1850.8335)"><path
                   id="path192480"
                   style="fill:#f1f1f1;fill-opacity:1;fill-rule:evenodd;stroke:none"
                   d="m 0,0 c -0.121,-3.418 -1.894,-8.438 -5.989,-15.658 -0.376,-0.663 -0.467,-1.419 -0.356,-2.231 0.054,0.403 0.178,0.782 0.378,1.135 C -1.409,-8.716 0.275,-3.407 0,0"
                   inkscape:connector-curvature="0" /></g><g
                 id="g192482"
                 transform="translate(925.1982,1981.2988)"><path
                   id="path192484"
                   style="fill:#f1f1f1;fill-opacity:1;fill-rule:evenodd;stroke:none"
                   d="M 0,0 C -0.013,-13.021 11.597,-7.643 22.589,-1.839 27.366,0.684 37.275,-10.061 37.935,-16.501 38.45,-10.285 27.63,1.931 22.568,-0.743 11.894,-6.38 0.632,-11.624 0,0"
                   inkscape:connector-curvature="0" /></g><g
                 id="g192486"
                 transform="translate(952.4297,1946.001)"><path
                   id="path192488"
                   style="fill:#f1f1f1;fill-opacity:1;fill-rule:evenodd;stroke:none"
                   d="m 0,0 c -0.457,-7.022 10.23,-7.513 20.669,-7.515 4.069,0.002 7.256,-8.039 7.562,-14.578 0.027,6.697 -3.283,15.676 -7.583,15.673 C 10.781,-6.417 0.689,-5.979 0,0"
                   inkscape:connector-curvature="0" /></g><g
                 id="g192490"
                 transform="translate(850.8057,1815.7959)"><path
                   id="path192492"
                   style="fill:#f1f1f1;fill-opacity:1;fill-rule:evenodd;stroke:none"
                   d="M 0,0 C 0.019,-1.409 0.008,-2.905 -0.05,-4.544 -0.058,-4.728 -0.043,-4.909 -0.017,-5.088 0.041,-3.242 0.043,-1.548 0,0"
                   inkscape:connector-curvature="0" /></g><g
                 id="g192494"
                 transform="translate(783.4082,1874.7505)"><path
                   id="path192496"
                   style="fill:#f1f1f1;fill-opacity:1;fill-rule:evenodd;stroke:none"
                   d="M 0,0 C 10.427,6.721 13.965,11.504 13.481,15.072 13.173,11.633 9.374,7.151 -0.021,1.096 -1.389,0.218 -1.857,-1.619 -1.69,-3.856 -1.643,-2.125 -1.137,-0.73 0,0"
                   inkscape:connector-curvature="0" /></g><g
                 id="g192498"
                 transform="translate(919.5029,1826.2871)"><path
                   id="path192500"
                   style="fill:#f1f1f1;fill-opacity:1;fill-rule:evenodd;stroke:none"
                   d="m 0,0 c 0.027,-3.162 0.389,-6.7 0.81,-10.221 0.037,0.262 0.048,0.523 0.017,0.783 C 0.439,-6.217 0.092,-2.969 0,0"
                   inkscape:connector-curvature="0" /></g><g
                 id="g192502"
                 transform="translate(949.4453,1863.2466)"><path
                   id="path192504"
                   style="fill:#f1f1f1;fill-opacity:1;fill-rule:evenodd;stroke:none"
                   d="m 0,0 c -0.228,-4.495 3.895,-10.965 8.145,-17.192 0.301,-0.446 0.474,-0.963 0.548,-1.524 0.085,1 -0.078,1.899 -0.573,2.62 C 4.208,-10.361 0.399,-4.415 0,0"
                   inkscape:connector-curvature="0" /></g><g
                 id="g192506"
                 transform="translate(976.6211,1891.4346)"><path
                   id="path192508"
                   style="fill:#f1f1f1;fill-opacity:1;fill-rule:evenodd;stroke:none"
                   d="M 0,0 C -7.482,3.973 -14.979,8.296 -15.627,12.983 -16.116,7.871 -8.041,3.183 0.021,-1.095 1.522,-1.889 2.24,-3.854 2.375,-6.296 2.414,-3.35 1.721,-0.911 0,0"
                   inkscape:connector-curvature="0" /></g><g
                 id="g192510"
                 transform="translate(779.2744,1922.8477)"><path
                   id="path192512"
                   style="fill:#f1f1f1;fill-opacity:1;fill-rule:evenodd;stroke:none"
                   d="M 0,0 C 15.054,1.289 19.696,4.834 19.125,9.359 18.829,5.362 13.795,2.276 -0.019,1.097 -3.683,0.786 -5.521,-6.057 -5.282,-12.227 -5.278,-6.37 -3.445,-0.292 0,0"
                   inkscape:connector-curvature="0" /></g><g
                 id="g192514"
                 transform="translate(834.7031,1998.0996)"><path
                   id="path192516"
                   style="fill:#f1f1f1;fill-opacity:1;fill-rule:evenodd;stroke:none"
                   d="m 0,0 c 19.149,-23.481 22.115,-7.475 24.007,8.049 0.773,6.516 21.5,8.266 22.827,1.849 6.142,-29.748 16.143,-16.976 24.962,-4.109 3.416,4.972 20.013,-1.62 21.12,-7.624 C 93.872,4.412 75.4,12.161 71.774,6.882 62.956,-5.983 52.953,-18.754 46.813,10.993 45.485,17.411 24.758,15.66 23.987,9.146 22.094,-6.38 19.129,-22.385 -0.021,1.096 -4.042,6.009 -20.684,-4.468 -19.547,-10.705 -18.816,-4.427 -3.793,4.636 0,0"
                   inkscape:connector-curvature="0" /></g><g
                 id="g192518"
                 transform="translate(797.8027,1967.3701)"><path
                   id="path192520"
                   style="fill:#f1f1f1;fill-opacity:1;fill-rule:evenodd;stroke:none"
                   d="M 0,0 C 17.527,-7.451 22.089,-3.99 21.69,3.252 21.561,-3.225 16.598,-5.969 -0.022,1.095 -5.109,3.255 -13.316,-9.522 -12.716,-16.103 -12.434,-9.306 -4.818,2.044 0,0"
                   inkscape:connector-curvature="0" /></g></g></g></g></g></g><g
       transform="translate(878.4395,1854.8213)"
       id="g192522"><path
         id="path192524"
         style="fill:#6d6f71;fill-opacity:1;fill-rule:evenodd;stroke:none"
         d="m 0.20550349,-10.517407 c -34.85160049,-0.6804 -63.65640049,27.0216 -64.33680049,61.872 -0.684,34.8516 27.0192,63.656397 61.8696005,64.337997 34.8551995,0.6804 63.6599995,-27.020397 64.3403995,-61.873197 0.6804,-34.8504 -27.018,-63.6564001 -61.87319951,-64.3368 M -2.5592965,131.03099 C -45.882897,130.18379 -80.319297,94.378193 -79.470897,51.053393 c 0.8472,-43.3212001 36.6516,-77.7552 79.97400049,-76.9104 43.32599951,0.846 77.75999951,36.6564 76.91279951,79.9776 -0.846,43.3212 -36.6528,77.757597 -79.9751995,76.910397"
         inkscape:connector-curvature="0" /></g><g
       style="filter:url(#filter192301)"
       id="g192526"><g
         id="g192528"><g
           id="g192530"><g
             id="g192532"><path
               id="path192534"
               style="fill:url(#linearGradient6338);stroke:none"
               d="m 875.85619,1986.9492 c -43.3224,-0.846 -77.7528,-36.6552 -76.9092,-79.9788 l 0,0 c 0.846,-43.3212 36.6528,-77.7564 79.974,-76.9104 l 0,0 c 43.3248,0.8484 77.76,36.6528 76.914,79.9764 l 0,0 c -0.8376,42.7992 -35.8008,76.9236 -78.4188,76.9272 l 0,0 c -0.522,0 -1.0356,0 -1.56,-0.014 m -61.572,-79.6776 c -0.6816,34.8528 27.0204,63.6564 61.8732,64.338 l 0,0 c 34.854,0.6816 63.6552,-27.0216 64.3368,-61.8732 l 0,0 c 0.6804,-34.8516 -27.0168,-63.6564 -61.8708,-64.3392 l 0,0 c -0.4164,-0.012 -0.8376,-0.012 -1.2528,-0.012 l 0,0 c -34.2876,0 -62.4108,27.4512 -63.0864,61.8864"
               inkscape:connector-curvature="0" /></g></g></g></g></g><g
     style="display:none"
     transform="matrix(1.25,0,0,-1.25,-956.20241,2530.5629)"
     inkscape:label="top-highlight"
     inkscape:groupmode="layer"
     id="g192324"><g
       transform="matrix(1.1988526,0,0,1.1988526,-174.35771,-377.50782)"
       id="g192424"><g
         id="g192426" /><g
         id="g192428"><g
           id="g192430"
           clip-path="url(#clipPath51634)"
           style="opacity:0.25"><g
             id="g192432"
             transform="translate(876.165,1971.3574)"><path
               id="path192434"
               style="fill:#ffffff;fill-opacity:1;fill-rule:nonzero;stroke:none"
               d="M 0,0 C 24.378,0.477 46.038,-12.503 58.63,-32.439 46.374,-11.663 24.57,1.969 -0.031,1.488 -24.629,1.009 -45.884,-13.465 -57.322,-34.705 -45.519,-14.29 -24.381,-0.476 0,0"
               inkscape:connector-curvature="0" /></g></g></g></g></g><g
     inkscape:groupmode="layer"
     id="layer1"
     inkscape:label="Z"
     style="display:inline"
     transform="translate(-9.9998944,-6.7371252)"><g
   style="font-size:160px;font-style:normal;font-variant:normal;font-weight:300;font-stretch:normal;line-height:125%;letter-spacing:0px;word-spacing:0px;fill:#225e9b;fill-opacity:1;stroke:none;filter:url(#filter6312);font-family:Muli;-inkscape-font-specification:Muli Light"
   id="text191882"><path
     sodipodi:type="inkscape:offset"
     inkscape:radius="1.5"
     inkscape:original="M 99.65625 70.65625 C 94.95779 73.583297 98.020147 80.399716 96.4375 84.9375 C 95.579108 96.858105 92.977065 108.68633 93.625 120.6875 C 98.497574 121.72886 103.29704 124.16925 108.40625 123.5625 C 111.18818 112.86061 113.93428 99.703166 124.25 93.90625 C 138.03753 93.443093 151.83347 93.769937 165.625 93.71875 C 139.26039 136.49636 112.26229 179.20722 86.25 222 C 88.671167 228.19511 95.366648 232.91338 102 230.5 C 138.86431 230.3295 175.72918 230.43965 212.59375 230.40625 C 212.68605 214.06366 214.1072 197.54177 213.5625 181.3125 C 208.74364 180.93824 202.58969 175.35561 198.65625 180.28125 C 193.87601 189.79255 194.02964 202.41449 184.5 209.0625 C 168.40142 209.0822 152.22102 210.20297 136.1875 208.25 C 136.78774 201.9552 142.79735 198.23009 144.875 192.4375 C 167.67594 155.23256 190.64369 118.0302 213.3125 80.8125 C 211.16096 75.958629 206.31834 70.410934 200.46875 72.59375 C 166.87667 71.597899 133.11007 74.728888 99.65625 70.65625 z "
     style="font-size:250px;font-weight:bold;fill:#225e9b;font-family:Gentium Book Basic;-inkscape-font-specification:Gentium Book Basic Bold"
     id="path6138"
     d="M 99.53125,69.15625 A 1.50015,1.50015 0 0 0 98.875,69.375 c -1.458457,0.90859 -2.41692,2.21605 -2.90625,3.59375 -0.48933,1.3777 -0.583426,2.826026 -0.59375,4.21875 -0.02065,2.785448 0.271594,5.485679 -0.34375,7.25 a 1.50015,1.50015 0 0 0 -0.09375,0.40625 c -0.847901,11.77491 -3.47495,23.66748 -2.8125,35.9375 a 1.50015,1.50015 0 0 0 1.1875,1.375 c 4.601057,0.98333 9.59509,3.58152 15.28125,2.90625 a 1.50015,1.50015 0 0 0 1.25,-1.125 c 2.76986,-10.65547 5.55774,-23.06865 14.90625,-28.53125 12.69386,-0.411073 25.41731,-0.180838 38.1875,-0.1875 -25.91254,42.0068 -52.40922,83.95206 -77.96875,126 a 1.50015,1.50015 0 0 0 -0.125,1.3125 c 1.334228,3.41393 3.815728,6.41157 6.9375,8.25 3.009106,1.77208 6.679697,2.39803 10.3125,1.21875 36.82546,-0.16985 73.66279,-0.0604 110.5,-0.0937 a 1.50015,1.50015 0 0 0 1.5,-1.5 c 0.0918,-16.26134 1.51753,-32.80545 0.96875,-49.15625 a 1.50015,1.50015 0 0 0 -1.375,-1.4375 c -1.88453,-0.14636 -4.62915,-1.54573 -7.46875,-2.4375 -1.4198,-0.44588 -2.92233,-0.7722 -4.46875,-0.5625 -1.54642,0.2097 -3.09266,1.04285 -4.28125,2.53125 a 1.50015,1.50015 0 0 0 -0.15625,0.25 c -2.51257,4.99929 -3.66438,10.59824 -5.375,15.65625 -1.66422,4.9208 -3.80687,9.25668 -7.96875,12.3125 -15.38499,0.0411 -30.71388,0.97012 -45.8125,-0.65625 0.55484,-2.04252 1.58571,-3.92211 3.03125,-5.84375 1.74216,-2.31594 3.75472,-4.76233 4.9375,-7.84375 l 0.0312,0 c 22.79922,-37.20213 45.76555,-74.40214 68.4375,-111.625 a 1.50015,1.50015 0 0 0 0.0937,-1.375 c -1.15893,-2.61454 -3.01372,-5.408515 -5.5,-7.34375 -2.38028,-1.852724 -5.52814,-2.823449 -8.8125,-1.78125 -33.67326,-0.988105 -67.33026,2.104358 -100.53125,-1.9375 a 1.50015,1.50015 0 0 0 -0.3125,0 z" /></g><text
   xml:space="preserve"
   style="font-size:160px;font-style:normal;font-variant:normal;font-weight:300;font-stretch:normal;line-height:125%;letter-spacing:0px;word-spacing:0px;fill:#225e9b;fill-opacity:1;stroke:#ffffff;stroke-width:10;stroke-linejoin:round;stroke-miterlimit:4;stroke-opacity:1;stroke-dasharray:none;filter:url(#filter6330);font-family:Muli;-inkscape-font-specification:Muli Light"
   x="82.569405"
   y="228.39809"
   id="text6081"
   sodipodi:linespacing="125%"><tspan
     sodipodi:role="line"
     id="tspan6083"
     x="82.569405"
     y="228.39809"
     style="font-size:250px;font-style:normal;font-variant:normal;font-weight:bold;font-stretch:normal;fill:#225e9b;fill-opacity:1;stroke:#ffffff;stroke-width:10;stroke-linejoin:round;stroke-miterlimit:4;stroke-opacity:1;stroke-dasharray:none;font-family:Gentium Book Basic;-inkscape-font-specification:Gentium Book Basic Bold">Z</tspan></text>



<text
   xml:space="preserve"
   style="font-size:160px;font-style:normal;font-variant:normal;font-weight:300;font-stretch:normal;line-height:125%;letter-spacing:0px;word-spacing:0px;fill:url(#linearGradient191892);fill-opacity:1;stroke:#000000;stroke-width:0;stroke-miterlimit:4;stroke-opacity:1;stroke-dasharray:none;filter:url(#filter191936);font-family:Muli;-inkscape-font-specification:Muli Light"
   x="82.569405"
   y="228.39809"
   id="text191096"
   sodipodi:linespacing="125%"><tspan
     sodipodi:role="line"
     id="tspan191098"
     x="82.569405"
     y="228.39809"
     style="font-size:250px;font-style:normal;font-variant:normal;font-weight:bold;font-stretch:normal;fill:url(#linearGradient191892);fill-opacity:1;stroke:#000000;stroke-width:0;stroke-miterlimit:4;stroke-opacity:1;stroke-dasharray:none;font-family:Gentium Book Basic;-inkscape-font-specification:Gentium Book Basic Bold">Z</tspan></text>



</g></svg>