<?xml version="1.0" encoding="UTF-8" standalone="no"?>
<!DOCTYPE svg PUBLIC "-//W3C//DTD SVG 1.1//EN"
 "http://www.w3.org/Graphics/SVG/1.1/DTD/svg11.dtd">
<!-- Generated by graphviz version 2.43.0 (0)
 -->
<!-- Title: %3 Pages: 1 -->
<svg width="2216pt" height="476pt"
 viewBox="0.00 0.00 2215.56 476.00" xmlns="http://www.w3.org/2000/svg" xmlns:xlink="http://www.w3.org/1999/xlink">
<g id="graph0" class="graph" transform="scale(1 1) rotate(0) translate(4 472)">
<title>%3</title>
<polygon fill="white" stroke="transparent" points="-4,4 -4,-472 2211.56,-472 2211.56,4 -4,4"/>
<!-- session -->
<g id="node1" class="node">
<title>session</title>
<ellipse fill="none" stroke="black" cx="811.99" cy="-90" rx="44.69" ry="18"/>
<text text-anchor="middle" x="811.99" y="-86.3" font-family="Times,serif" font-size="14.00">session</text>
</g>
<!-- util -->
<g id="node2" class="node">
<title>util</title>
<ellipse fill="none" stroke="black" cx="1139.99" cy="-18" rx="27" ry="18"/>
<text text-anchor="middle" x="1139.99" y="-14.3" font-family="Times,serif" font-size="14.00">util</text>
</g>
<!-- session&#45;&gt;util -->
<g id="edge1" class="edge">
<title>session&#45;&gt;util</title>
<path fill="none" stroke="black" d="M850.58,-80.76C914.77,-67.06 1042.55,-39.79 1104.58,-26.56"/>
<polygon fill="black" stroke="black" points="1105.61,-29.92 1114.66,-24.41 1104.15,-23.07 1105.61,-29.92"/>
</g>
<!-- corejava_parent -->
<g id="node3" class="node">
<title>corejava_parent</title>
<ellipse fill="none" stroke="black" cx="625.99" cy="-90" rx="85.29" ry="18"/>
<text text-anchor="middle" x="625.99" y="-86.3" font-family="Times,serif" font-size="14.00">corejava_parent</text>
</g>
<!-- corejava_parent&#45;&gt;util -->
<g id="edge2" class="edge">
<title>corejava_parent&#45;&gt;util</title>
<path fill="none" stroke="black" d="M688.77,-77.8C700.78,-75.78 713.26,-73.76 724.99,-72 864.32,-51.15 1030.75,-31.47 1103.23,-23.16"/>
<polygon fill="black" stroke="black" points="1103.69,-26.63 1113.23,-22.01 1102.9,-19.67 1103.69,-26.63"/>
</g>
<!-- corejava_z -->
<g id="node4" class="node">
<title>corejava_z</title>
<ellipse fill="none" stroke="black" cx="1283.99" cy="-90" rx="59.29" ry="18"/>
<text text-anchor="middle" x="1283.99" y="-86.3" font-family="Times,serif" font-size="14.00">corejava_z</text>
</g>
<!-- corejava_z&#45;&gt;util -->
<g id="edge3" class="edge">
<title>corejava_z&#45;&gt;util</title>
<path fill="none" stroke="black" d="M1253.8,-74.33C1229.34,-62.43 1195.02,-45.75 1170.48,-33.82"/>
<polygon fill="black" stroke="black" points="1171.79,-30.57 1161.27,-29.34 1168.73,-36.86 1171.79,-30.57"/>
</g>
<!-- zml -->
<g id="node5" class="node">
<title>zml</title>
<ellipse fill="none" stroke="black" cx="1902.99" cy="-18" rx="27.1" ry="18"/>
<text text-anchor="middle" x="1902.99" y="-14.3" font-family="Times,serif" font-size="14.00">zml</text>
</g>
<!-- corejava_z&#45;&gt;zml -->
<g id="edge4" class="edge">
<title>corejava_z&#45;&gt;zml</title>
<path fill="none" stroke="black" d="M1338.48,-82.77C1366.69,-79.54 1401.69,-75.55 1432.99,-72 1594.43,-53.69 1787.09,-32.02 1866.26,-23.13"/>
<polygon fill="black" stroke="black" points="1866.68,-26.6 1876.23,-22.01 1865.9,-19.64 1866.68,-26.6"/>
</g>
<!-- corejava_zpatt -->
<g id="node6" class="node">
<title>corejava_zpatt</title>
<ellipse fill="none" stroke="black" cx="1226.99" cy="-162" rx="77.99" ry="18"/>
<text text-anchor="middle" x="1226.99" y="-158.3" font-family="Times,serif" font-size="14.00">corejava_zpatt</text>
</g>
<!-- corejava_zpatt&#45;&gt;util -->
<g id="edge5" class="edge">
<title>corejava_zpatt&#45;&gt;util</title>
<path fill="none" stroke="black" d="M1216.67,-144.15C1201.4,-119.23 1172.69,-72.38 1155.07,-43.61"/>
<polygon fill="black" stroke="black" points="1157.97,-41.65 1149.76,-34.95 1152,-45.31 1157.97,-41.65"/>
</g>
<!-- corejava_zpatt&#45;&gt;corejava_z -->
<g id="edge6" class="edge">
<title>corejava_zpatt&#45;&gt;corejava_z</title>
<path fill="none" stroke="black" d="M1240.79,-144.05C1247.72,-135.54 1256.25,-125.07 1263.89,-115.68"/>
<polygon fill="black" stroke="black" points="1266.72,-117.75 1270.32,-107.79 1261.29,-113.33 1266.72,-117.75"/>
</g>
<!-- corejava_zeves -->
<g id="node7" class="node">
<title>corejava_zeves</title>
<ellipse fill="none" stroke="black" cx="263.99" cy="-162" rx="79.89" ry="18"/>
<text text-anchor="middle" x="263.99" y="-158.3" font-family="Times,serif" font-size="14.00">corejava_zeves</text>
</g>
<!-- corejava_zeves&#45;&gt;util -->
<g id="edge7" class="edge">
<title>corejava_zeves&#45;&gt;util</title>
<path fill="none" stroke="black" d="M342.11,-157.86C454.3,-152.34 654.73,-138.49 719.99,-108 741.07,-98.15 737.02,-82.08 757.99,-72 818.61,-42.86 1019.36,-26.81 1102.95,-21.26"/>
<polygon fill="black" stroke="black" points="1103.26,-24.75 1113.01,-20.6 1102.81,-17.76 1103.26,-24.75"/>
</g>
<!-- corejava_zeves&#45;&gt;corejava_z -->
<g id="edge8" class="edge">
<title>corejava_zeves&#45;&gt;corejava_z</title>
<path fill="none" stroke="black" d="M339.41,-155.82C531.08,-142.67 1034.61,-108.11 1216.89,-95.6"/>
<polygon fill="black" stroke="black" points="1217.15,-99.1 1226.88,-94.92 1216.67,-92.11 1217.15,-99.1"/>
</g>
<!-- corejava_oz -->
<g id="node8" class="node">
<title>corejava_oz</title>
<ellipse fill="none" stroke="black" cx="1126.99" cy="-234" rx="64.19" ry="18"/>
<text text-anchor="middle" x="1126.99" y="-230.3" font-family="Times,serif" font-size="14.00">corejava_oz</text>
</g>
<!-- corejava_oz&#45;&gt;util -->
<g id="edge9" class="edge">
<title>corejava_oz&#45;&gt;util</title>
<path fill="none" stroke="black" d="M1118.68,-215.79C1114.25,-205.63 1109.25,-192.38 1106.99,-180 1098.38,-132.78 1093.8,-118.15 1106.99,-72 1109.98,-61.53 1115.71,-51.11 1121.57,-42.32"/>
<polygon fill="black" stroke="black" points="1124.45,-44.31 1127.37,-34.12 1118.73,-40.26 1124.45,-44.31"/>
</g>
<!-- corejava_oz&#45;&gt;corejava_zpatt -->
<g id="edge10" class="edge">
<title>corejava_oz&#45;&gt;corejava_zpatt</title>
<path fill="none" stroke="black" d="M1149.68,-217.12C1163.17,-207.67 1180.48,-195.56 1195.3,-185.18"/>
<polygon fill="black" stroke="black" points="1197.51,-187.91 1203.69,-179.31 1193.49,-182.17 1197.51,-187.91"/>
</g>
<!-- corejava_circus -->
<g id="node9" class="node">
<title>corejava_circus</title>
<ellipse fill="none" stroke="black" cx="1573.99" cy="-234" rx="81.79" ry="18"/>
<text text-anchor="middle" x="1573.99" y="-230.3" font-family="Times,serif" font-size="14.00">corejava_circus</text>
</g>
<!-- corejava_circus&#45;&gt;util -->
<g id="edge11" class="edge">
<title>corejava_circus&#45;&gt;util</title>
<path fill="none" stroke="black" d="M1563.52,-216.05C1541.83,-182.53 1488.52,-107.91 1422.99,-72 1343.3,-28.33 1234.09,-19.96 1177.46,-18.77"/>
<polygon fill="black" stroke="black" points="1177.24,-15.27 1167.19,-18.62 1177.14,-22.27 1177.24,-15.27"/>
</g>
<!-- corejava_circus&#45;&gt;corejava_z -->
<g id="edge12" class="edge">
<title>corejava_circus&#45;&gt;corejava_z</title>
<path fill="none" stroke="black" d="M1542.13,-217.4C1488.6,-191.19 1380.84,-138.42 1322.92,-110.06"/>
<polygon fill="black" stroke="black" points="1324.25,-106.82 1313.73,-105.56 1321.17,-113.1 1324.25,-106.82"/>
</g>
<!-- corejava_circus&#45;&gt;zml -->
<g id="edge13" class="edge">
<title>corejava_circus&#45;&gt;zml</title>
<path fill="none" stroke="black" d="M1648.21,-226.29C1716.81,-218.69 1812.33,-204.12 1840.99,-180 1881.28,-146.09 1895.47,-82.82 1900.41,-46.51"/>
<polygon fill="black" stroke="black" points="1903.94,-46.52 1901.67,-36.17 1896.99,-45.68 1903.94,-46.52"/>
</g>
<!-- corejava_circus&#45;&gt;corejava_zpatt -->
<g id="edge14" class="edge">
<title>corejava_circus&#45;&gt;corejava_zpatt</title>
<path fill="none" stroke="black" d="M1515.91,-221.28C1454.56,-208.91 1357.97,-189.42 1293.58,-176.43"/>
<polygon fill="black" stroke="black" points="1294.03,-172.95 1283.53,-174.41 1292.64,-179.81 1294.03,-172.95"/>
</g>
<!-- corejava_circuspatt -->
<g id="node10" class="node">
<title>corejava_circuspatt</title>
<ellipse fill="none" stroke="black" cx="1499.99" cy="-306" rx="100.98" ry="18"/>
<text text-anchor="middle" x="1499.99" y="-302.3" font-family="Times,serif" font-size="14.00">corejava_circuspatt</text>
</g>
<!-- corejava_circuspatt&#45;&gt;util -->
<g id="edge15" class="edge">
<title>corejava_circuspatt&#45;&gt;util</title>
<path fill="none" stroke="black" d="M1494.2,-287.79C1478.64,-244.31 1431.66,-129.48 1351.99,-72 1299.44,-34.09 1222.64,-23.17 1177.34,-20.11"/>
<polygon fill="black" stroke="black" points="1177.27,-16.6 1167.08,-19.51 1176.86,-23.58 1177.27,-16.6"/>
</g>
<!-- corejava_circuspatt&#45;&gt;corejava_z -->
<g id="edge16" class="edge">
<title>corejava_circuspatt&#45;&gt;corejava_z</title>
<path fill="none" stroke="black" d="M1454.25,-289.96C1434.01,-281.43 1411.18,-269.01 1394.99,-252 1358.77,-213.95 1378.56,-185.98 1346.99,-144 1338.3,-132.44 1326.63,-121.74 1315.7,-113.02"/>
<polygon fill="black" stroke="black" points="1317.61,-110.07 1307.55,-106.76 1313.35,-115.63 1317.61,-110.07"/>
</g>
<!-- corejava_circuspatt&#45;&gt;corejava_circus -->
<g id="edge17" class="edge">
<title>corejava_circuspatt&#45;&gt;corejava_circus</title>
<path fill="none" stroke="black" d="M1517.9,-288.05C1527.17,-279.28 1538.65,-268.43 1548.8,-258.83"/>
<polygon fill="black" stroke="black" points="1551.38,-261.2 1556.24,-251.79 1546.57,-256.12 1551.38,-261.2"/>
</g>
<!-- corejava_circustime -->
<g id="node11" class="node">
<title>corejava_circustime</title>
<ellipse fill="none" stroke="black" cx="2037.99" cy="-378" rx="102.88" ry="18"/>
<text text-anchor="middle" x="2037.99" y="-374.3" font-family="Times,serif" font-size="14.00">corejava_circustime</text>
</g>
<!-- corejava_circustime&#45;&gt;util -->
<g id="edge18" class="edge">
<title>corejava_circustime&#45;&gt;util</title>
<path fill="none" stroke="black" d="M2038.96,-359.72C2039.42,-341.38 2038.51,-311.81 2029.99,-288 2016.95,-251.56 2012.46,-238.54 1980.99,-216 1718.92,-28.24 1303.91,-16.9 1177.66,-18.09"/>
<polygon fill="black" stroke="black" points="1177.32,-14.59 1167.36,-18.22 1177.41,-21.59 1177.32,-14.59"/>
</g>
<!-- corejava_circustime&#45;&gt;corejava_z -->
<g id="edge19" class="edge">
<title>corejava_circustime&#45;&gt;corejava_z</title>
<path fill="none" stroke="black" d="M2034.44,-359.95C2026.28,-325.55 2002.57,-248.37 1948.99,-216 1848.1,-155.04 1496.73,-112.84 1349.59,-97.45"/>
<polygon fill="black" stroke="black" points="1349.66,-93.94 1339.35,-96.39 1348.94,-100.9 1349.66,-93.94"/>
</g>
<!-- corejava_circustime&#45;&gt;zml -->
<g id="edge20" class="edge">
<title>corejava_circustime&#45;&gt;zml</title>
<path fill="none" stroke="black" d="M2058.63,-360.09C2086.03,-335.62 2130.99,-287.46 2130.99,-235 2130.99,-235 2130.99,-235 2130.99,-161 2130.99,-120.03 2136.09,-100.84 2106.99,-72 2083.52,-48.75 1991.68,-31.93 1939.58,-24.04"/>
<polygon fill="black" stroke="black" points="1939.82,-20.53 1929.42,-22.53 1938.8,-27.46 1939.82,-20.53"/>
</g>
<!-- corejava_circustime&#45;&gt;corejava_zpatt -->
<g id="edge21" class="edge">
<title>corejava_circustime&#45;&gt;corejava_zpatt</title>
<path fill="none" stroke="black" d="M2027.73,-359.96C2004.54,-322.06 1947.73,-232.85 1916.99,-216 1865.31,-187.67 1487.49,-171.63 1313.85,-165.69"/>
<polygon fill="black" stroke="black" points="1313.83,-162.18 1303.72,-165.34 1313.6,-169.18 1313.83,-162.18"/>
</g>
<!-- corejava_circustime&#45;&gt;corejava_circus -->
<g id="edge22" class="edge">
<title>corejava_circustime&#45;&gt;corejava_circus</title>
<path fill="none" stroke="black" d="M2015.1,-360.38C1985.91,-340.04 1933.21,-306.08 1882.99,-288 1810.59,-261.94 1723.91,-248.5 1660.81,-241.68"/>
<polygon fill="black" stroke="black" points="1660.81,-238.17 1650.5,-240.61 1660.08,-245.13 1660.81,-238.17"/>
</g>
<!-- corejava_circustime&#45;&gt;corejava_circuspatt -->
<g id="edge23" class="edge">
<title>corejava_circustime&#45;&gt;corejava_circuspatt</title>
<path fill="none" stroke="black" d="M1958.32,-366.63C1859.52,-353.78 1691.62,-331.93 1588.78,-318.55"/>
<polygon fill="black" stroke="black" points="1589.1,-315.06 1578.73,-317.25 1588.2,-322.01 1589.1,-315.06"/>
</g>
<!-- corejava_circusconf -->
<g id="node12" class="node">
<title>corejava_circusconf</title>
<ellipse fill="none" stroke="black" cx="1370.99" cy="-378" rx="101.28" ry="18"/>
<text text-anchor="middle" x="1370.99" y="-374.3" font-family="Times,serif" font-size="14.00">corejava_circusconf</text>
</g>
<!-- corejava_circusconf&#45;&gt;util -->
<g id="edge24" class="edge">
<title>corejava_circusconf&#45;&gt;util</title>
<path fill="none" stroke="black" d="M1321.12,-362.25C1299.12,-353.82 1274.2,-341.38 1255.99,-324 1216.88,-286.67 1237.02,-255.4 1199.99,-216 1178.69,-193.34 1155.31,-207.06 1139.99,-180 1116.26,-138.08 1124.48,-79.63 1132.39,-45.91"/>
<polygon fill="black" stroke="black" points="1135.86,-46.43 1134.9,-35.88 1129.07,-44.73 1135.86,-46.43"/>
</g>
<!-- corejava_circusconf&#45;&gt;corejava_z -->
<g id="edge25" class="edge">
<title>corejava_circusconf&#45;&gt;corejava_z</title>
<path fill="none" stroke="black" d="M1368.45,-359.84C1362.3,-320.58 1344.77,-221.62 1313.99,-144 1310.33,-134.76 1305.31,-125.16 1300.43,-116.71"/>
<polygon fill="black" stroke="black" points="1303.39,-114.85 1295.25,-108.06 1297.38,-118.44 1303.39,-114.85"/>
</g>
<!-- corejava_circusconf&#45;&gt;zml -->
<g id="edge26" class="edge">
<title>corejava_circusconf&#45;&gt;zml</title>
<path fill="none" stroke="black" d="M1471.33,-375.21C1583.88,-371.44 1757.78,-359.81 1811.99,-324 1901.38,-264.95 1901.83,-213.75 1918.99,-108 1921.55,-92.21 1921.33,-87.83 1918.99,-72 1917.69,-63.21 1915.25,-53.86 1912.65,-45.5"/>
<polygon fill="black" stroke="black" points="1915.94,-44.29 1909.48,-35.9 1909.29,-46.49 1915.94,-44.29"/>
</g>
<!-- corejava_circusconf&#45;&gt;corejava_zpatt -->
<g id="edge27" class="edge">
<title>corejava_circusconf&#45;&gt;corejava_zpatt</title>
<path fill="none" stroke="black" d="M1331.11,-361.22C1313.62,-352.54 1294.12,-340.2 1280.99,-324 1248.91,-284.42 1235.54,-224.92 1230.23,-190.42"/>
<polygon fill="black" stroke="black" points="1233.64,-189.57 1228.78,-180.16 1226.71,-190.55 1233.64,-189.57"/>
</g>
<!-- corejava_circusconf&#45;&gt;corejava_circus -->
<g id="edge28" class="edge">
<title>corejava_circusconf&#45;&gt;corejava_circus</title>
<path fill="none" stroke="black" d="M1369.77,-359.92C1369.33,-340.06 1371.78,-307.53 1389.99,-288 1414.54,-261.66 1451.25,-248.13 1485.44,-241.27"/>
<polygon fill="black" stroke="black" points="1486.27,-244.68 1495.48,-239.43 1485.01,-237.79 1486.27,-244.68"/>
</g>
<!-- corejava_circusconf&#45;&gt;corejava_circuspatt -->
<g id="edge29" class="edge">
<title>corejava_circusconf&#45;&gt;corejava_circuspatt</title>
<path fill="none" stroke="black" d="M1400.91,-360.76C1418.77,-351.07 1441.66,-338.65 1460.93,-328.19"/>
<polygon fill="black" stroke="black" points="1462.67,-331.24 1469.79,-323.39 1459.33,-325.08 1462.67,-331.24"/>
</g>
<!-- parser_z -->
<g id="node13" class="node">
<title>parser_z</title>
<ellipse fill="none" stroke="black" cx="811.99" cy="-162" rx="50.09" ry="18"/>
<text text-anchor="middle" x="811.99" y="-158.3" font-family="Times,serif" font-size="14.00">parser_z</text>
</g>
<!-- parser_z&#45;&gt;session -->
<g id="edge30" class="edge">
<title>parser_z&#45;&gt;session</title>
<path fill="none" stroke="black" d="M811.99,-143.7C811.99,-135.98 811.99,-126.71 811.99,-118.11"/>
<polygon fill="black" stroke="black" points="815.49,-118.1 811.99,-108.1 808.49,-118.1 815.49,-118.1"/>
</g>
<!-- parser_z&#45;&gt;corejava_z -->
<g id="edge31" class="edge">
<title>parser_z&#45;&gt;corejava_z</title>
<path fill="none" stroke="black" d="M857.25,-154.29C942.18,-141.69 1125.55,-114.5 1221.93,-100.2"/>
<polygon fill="black" stroke="black" points="1222.73,-103.62 1232.11,-98.69 1221.7,-96.7 1222.73,-103.62"/>
</g>
<!-- parser_z&#45;&gt;zml -->
<g id="edge32" class="edge">
<title>parser_z&#45;&gt;zml</title>
<path fill="none" stroke="black" d="M849.24,-149.94C915.65,-130.7 1059.13,-91.29 1182.99,-72 1441.91,-31.69 1758.14,-21.87 1865.38,-19.63"/>
<polygon fill="black" stroke="black" points="1865.75,-23.12 1875.67,-19.42 1865.61,-16.12 1865.75,-23.12"/>
</g>
<!-- parser_zpatt -->
<g id="node14" class="node">
<title>parser_zpatt</title>
<ellipse fill="none" stroke="black" cx="746.99" cy="-234" rx="69.59" ry="18"/>
<text text-anchor="middle" x="746.99" y="-230.3" font-family="Times,serif" font-size="14.00">parser_zpatt</text>
</g>
<!-- parser_zpatt&#45;&gt;corejava_zpatt -->
<g id="edge33" class="edge">
<title>parser_zpatt&#45;&gt;corejava_zpatt</title>
<path fill="none" stroke="black" d="M806.33,-224.35C893.82,-211.59 1057.32,-187.74 1152.68,-173.84"/>
<polygon fill="black" stroke="black" points="1153.43,-177.26 1162.82,-172.36 1152.42,-170.34 1153.43,-177.26"/>
</g>
<!-- parser_zpatt&#45;&gt;parser_z -->
<g id="edge34" class="edge">
<title>parser_zpatt&#45;&gt;parser_z</title>
<path fill="none" stroke="black" d="M762.39,-216.41C770.57,-207.61 780.76,-196.63 789.78,-186.92"/>
<polygon fill="black" stroke="black" points="792.46,-189.18 796.7,-179.47 787.33,-184.42 792.46,-189.18"/>
</g>
<!-- parser_zeves -->
<g id="node15" class="node">
<title>parser_zeves</title>
<ellipse fill="none" stroke="black" cx="263.99" cy="-234" rx="71.49" ry="18"/>
<text text-anchor="middle" x="263.99" y="-230.3" font-family="Times,serif" font-size="14.00">parser_zeves</text>
</g>
<!-- parser_zeves&#45;&gt;corejava_zeves -->
<g id="edge35" class="edge">
<title>parser_zeves&#45;&gt;corejava_zeves</title>
<path fill="none" stroke="black" d="M263.99,-215.7C263.99,-207.98 263.99,-198.71 263.99,-190.11"/>
<polygon fill="black" stroke="black" points="267.49,-190.1 263.99,-180.1 260.49,-190.1 267.49,-190.1"/>
</g>
<!-- parser_zeves&#45;&gt;parser_z -->
<g id="edge36" class="edge">
<title>parser_zeves&#45;&gt;parser_z</title>
<path fill="none" stroke="black" d="M316.92,-221.7C327.51,-219.64 338.58,-217.63 348.99,-216 493.92,-193.25 665.82,-176.14 753.78,-168.09"/>
<polygon fill="black" stroke="black" points="754.18,-171.57 763.82,-167.18 753.55,-164.6 754.18,-171.57"/>
</g>
<!-- parser_oz -->
<g id="node16" class="node">
<title>parser_oz</title>
<ellipse fill="none" stroke="black" cx="907.99" cy="-306" rx="55.79" ry="18"/>
<text text-anchor="middle" x="907.99" y="-302.3" font-family="Times,serif" font-size="14.00">parser_oz</text>
</g>
<!-- parser_oz&#45;&gt;zml -->
<g id="edge37" class="edge">
<title>parser_oz&#45;&gt;zml</title>
<path fill="none" stroke="black" d="M922.96,-288.39C964.34,-243.76 1085.9,-121.31 1215.99,-72 1336.37,-26.37 1739.93,-20 1865.42,-19.13"/>
<polygon fill="black" stroke="black" points="1865.69,-22.63 1875.67,-19.07 1865.65,-15.63 1865.69,-22.63"/>
</g>
<!-- parser_oz&#45;&gt;corejava_oz -->
<g id="edge38" class="edge">
<title>parser_oz&#45;&gt;corejava_oz</title>
<path fill="none" stroke="black" d="M946.14,-292.81C982.29,-281.25 1036.82,-263.82 1076.55,-251.12"/>
<polygon fill="black" stroke="black" points="1077.85,-254.38 1086.31,-248 1075.72,-247.71 1077.85,-254.38"/>
</g>
<!-- parser_oz&#45;&gt;parser_z -->
<g id="edge39" class="edge">
<title>parser_oz&#45;&gt;parser_z</title>
<path fill="none" stroke="black" d="M900.01,-287.94C891.08,-269.51 875.67,-239.64 858.99,-216 851.86,-205.9 843.08,-195.55 835.05,-186.72"/>
<polygon fill="black" stroke="black" points="837.61,-184.33 828.24,-179.38 832.48,-189.09 837.61,-184.33"/>
</g>
<!-- parser_ozpatt -->
<g id="node17" class="node">
<title>parser_ozpatt</title>
<ellipse fill="none" stroke="black" cx="823.99" cy="-378" rx="74.99" ry="18"/>
<text text-anchor="middle" x="823.99" y="-374.3" font-family="Times,serif" font-size="14.00">parser_ozpatt</text>
</g>
<!-- parser_ozpatt&#45;&gt;parser_z -->
<g id="edge40" class="edge">
<title>parser_ozpatt&#45;&gt;parser_z</title>
<path fill="none" stroke="black" d="M825.77,-359.99C828.51,-330.51 832.76,-268.12 825.99,-216 824.86,-207.28 822.72,-197.95 820.45,-189.58"/>
<polygon fill="black" stroke="black" points="823.81,-188.6 817.67,-179.96 817.08,-190.54 823.81,-188.6"/>
</g>
<!-- parser_ozpatt&#45;&gt;parser_zpatt -->
<g id="edge41" class="edge">
<title>parser_ozpatt&#45;&gt;parser_zpatt</title>
<path fill="none" stroke="black" d="M814.7,-359.87C801.41,-335.35 776.83,-290.03 761.23,-261.26"/>
<polygon fill="black" stroke="black" points="764.15,-259.31 756.31,-252.19 758,-262.65 764.15,-259.31"/>
</g>
<!-- parser_ozpatt&#45;&gt;parser_oz -->
<g id="edge42" class="edge">
<title>parser_ozpatt&#45;&gt;parser_oz</title>
<path fill="none" stroke="black" d="M843.9,-360.41C854.93,-351.21 868.82,-339.64 880.84,-329.63"/>
<polygon fill="black" stroke="black" points="883.36,-332.08 888.8,-322.99 878.88,-326.7 883.36,-332.08"/>
</g>
<!-- parser_circus -->
<g id="node18" class="node">
<title>parser_circus</title>
<ellipse fill="none" stroke="black" cx="1729.99" cy="-306" rx="73.39" ry="18"/>
<text text-anchor="middle" x="1729.99" y="-302.3" font-family="Times,serif" font-size="14.00">parser_circus</text>
</g>
<!-- parser_circus&#45;&gt;zml -->
<g id="edge43" class="edge">
<title>parser_circus&#45;&gt;zml</title>
<path fill="none" stroke="black" d="M1752.85,-288.76C1782.55,-266.76 1834.67,-225.05 1868.99,-180 1890.67,-151.54 1896.77,-142.82 1904.99,-108 1908.67,-92.43 1905.29,-88 1904.99,-72 1904.83,-63.68 1904.54,-54.63 1904.22,-46.4"/>
<polygon fill="black" stroke="black" points="1907.71,-46.03 1903.8,-36.18 1900.72,-46.32 1907.71,-46.03"/>
</g>
<!-- parser_circus&#45;&gt;corejava_circus -->
<g id="edge44" class="edge">
<title>parser_circus&#45;&gt;corejava_circus</title>
<path fill="none" stroke="black" d="M1696.14,-289.81C1673.1,-279.47 1642.39,-265.69 1617.53,-254.54"/>
<polygon fill="black" stroke="black" points="1618.87,-251.3 1608.31,-250.4 1616,-257.69 1618.87,-251.3"/>
</g>
<!-- parser_circus&#45;&gt;parser_z -->
<g id="edge45" class="edge">
<title>parser_circus&#45;&gt;parser_z</title>
<path fill="none" stroke="black" d="M1669.98,-295.58C1650.84,-292.83 1629.56,-290.02 1609.99,-288 1486.83,-275.31 1168.93,-298.02 1053.99,-252 1030.85,-242.74 1033.11,-227.48 1010.99,-216 965.69,-192.5 909.05,-178.73 867.79,-171.14"/>
<polygon fill="black" stroke="black" points="868.37,-167.69 857.91,-169.39 867.14,-174.58 868.37,-167.69"/>
</g>
<!-- parser_circustime -->
<g id="node19" class="node">
<title>parser_circustime</title>
<ellipse fill="none" stroke="black" cx="1906.99" cy="-450" rx="94.48" ry="18"/>
<text text-anchor="middle" x="1906.99" y="-446.3" font-family="Times,serif" font-size="14.00">parser_circustime</text>
</g>
<!-- parser_circustime&#45;&gt;zml -->
<g id="edge46" class="edge">
<title>parser_circustime&#45;&gt;zml</title>
<path fill="none" stroke="black" d="M1992.83,-442.4C2063.31,-435.24 2155.78,-421.28 2182.99,-396 2213.01,-368.12 2206.99,-347.97 2206.99,-307 2206.99,-307 2206.99,-307 2206.99,-161 2206.99,-120.03 2213.04,-99.84 2182.99,-72 2148.2,-39.76 2008.45,-26.09 1940.48,-21.25"/>
<polygon fill="black" stroke="black" points="1940.43,-17.74 1930.22,-20.55 1939.95,-24.72 1940.43,-17.74"/>
</g>
<!-- parser_circustime&#45;&gt;corejava_circus -->
<g id="edge47" class="edge">
<title>parser_circustime&#45;&gt;corejava_circus</title>
<path fill="none" stroke="black" d="M1902.02,-432.01C1891.36,-398.77 1863.06,-325.11 1811.99,-288 1769.55,-257.16 1712.42,-243.76 1664.77,-238.14"/>
<polygon fill="black" stroke="black" points="1665.08,-234.65 1654.76,-237.05 1664.32,-241.61 1665.08,-234.65"/>
</g>
<!-- parser_circustime&#45;&gt;corejava_circustime -->
<g id="edge48" class="edge">
<title>parser_circustime&#45;&gt;corejava_circustime</title>
<path fill="none" stroke="black" d="M1937.37,-432.76C1955.51,-423.07 1978.75,-410.65 1998.33,-400.19"/>
<polygon fill="black" stroke="black" points="2000.15,-403.19 2007.32,-395.39 1996.85,-397.02 2000.15,-403.19"/>
</g>
<!-- parser_circustime&#45;&gt;parser_z -->
<g id="edge49" class="edge">
<title>parser_circustime&#45;&gt;parser_z</title>
<path fill="none" stroke="black" d="M1906.55,-431.67C1905.56,-413.27 1902.48,-383.66 1892.99,-360 1878.48,-323.84 1873.43,-312.32 1842.99,-288 1776.32,-234.73 1748.21,-234.89 1664.99,-216 1626.36,-207.23 1058.42,-176.2 871.29,-166.16"/>
<polygon fill="black" stroke="black" points="871.27,-162.65 861.09,-165.61 870.89,-169.64 871.27,-162.65"/>
</g>
<!-- parser_circustime&#45;&gt;parser_circus -->
<g id="edge50" class="edge">
<title>parser_circustime&#45;&gt;parser_circus</title>
<path fill="none" stroke="black" d="M1886.34,-432.43C1854.76,-407.1 1794.39,-358.67 1758.61,-329.96"/>
<polygon fill="black" stroke="black" points="1760.5,-326.99 1750.51,-323.46 1756.12,-332.45 1760.5,-326.99"/>
</g>
<!-- parser_circusconf -->
<g id="node20" class="node">
<title>parser_circusconf</title>
<ellipse fill="none" stroke="black" cx="1628.99" cy="-450" rx="92.88" ry="18"/>
<text text-anchor="middle" x="1628.99" y="-446.3" font-family="Times,serif" font-size="14.00">parser_circusconf</text>
</g>
<!-- parser_circusconf&#45;&gt;zml -->
<g id="edge51" class="edge">
<title>parser_circusconf&#45;&gt;zml</title>
<path fill="none" stroke="black" d="M1710.02,-441.06C1855.91,-426.72 2147.96,-397.82 2149.99,-396 2180.11,-369 2168.99,-347.45 2168.99,-307 2168.99,-307 2168.99,-307 2168.99,-161 2168.99,-117.99 2163.95,-99.64 2130.99,-72 2102.26,-47.91 1996.5,-31.01 1939.68,-23.45"/>
<polygon fill="black" stroke="black" points="1940.03,-19.97 1929.66,-22.15 1939.13,-26.91 1940.03,-19.97"/>
</g>
<!-- parser_circusconf&#45;&gt;corejava_circus -->
<g id="edge52" class="edge">
<title>parser_circusconf&#45;&gt;corejava_circus</title>
<path fill="none" stroke="black" d="M1629.59,-431.93C1630.08,-401.84 1628.58,-337.84 1609.99,-288 1606.35,-278.25 1600.57,-268.56 1594.69,-260.17"/>
<polygon fill="black" stroke="black" points="1597.38,-257.92 1588.62,-251.96 1591.76,-262.08 1597.38,-257.92"/>
</g>
<!-- parser_circusconf&#45;&gt;corejava_circusconf -->
<g id="edge53" class="edge">
<title>parser_circusconf&#45;&gt;corejava_circusconf</title>
<path fill="none" stroke="black" d="M1577.4,-435C1536.11,-423.8 1478.04,-408.04 1434,-396.1"/>
<polygon fill="black" stroke="black" points="1434.83,-392.69 1424.26,-393.45 1433,-399.45 1434.83,-392.69"/>
</g>
<!-- parser_circusconf&#45;&gt;parser_z -->
<g id="edge54" class="edge">
<title>parser_circusconf&#45;&gt;parser_z</title>
<path fill="none" stroke="black" d="M1539.59,-445.01C1463.78,-439.55 1353.01,-426.62 1260.99,-396 1102.47,-343.26 1080.75,-290.05 930.99,-216 905.45,-203.37 876.22,-190.33 853.12,-180.35"/>
<polygon fill="black" stroke="black" points="854.2,-177 843.63,-176.27 851.43,-183.43 854.2,-177"/>
</g>
<!-- parser_circusconf&#45;&gt;parser_circus -->
<g id="edge55" class="edge">
<title>parser_circusconf&#45;&gt;parser_circus</title>
<path fill="none" stroke="black" d="M1641.17,-431.87C1658.77,-407.14 1691.41,-361.24 1711.84,-332.51"/>
<polygon fill="black" stroke="black" points="1714.82,-334.37 1717.76,-324.19 1709.12,-330.31 1714.82,-334.37"/>
</g>
<!-- typechecker_z -->
<g id="node21" class="node">
<title>typechecker_z</title>
<ellipse fill="none" stroke="black" cx="467.99" cy="-234" rx="76.89" ry="18"/>
<text text-anchor="middle" x="467.99" y="-230.3" font-family="Times,serif" font-size="14.00">typechecker_z</text>
</g>
<!-- typechecker_z&#45;&gt;session -->
<g id="edge56" class="edge">
<title>typechecker_z&#45;&gt;session</title>
<path fill="none" stroke="black" d="M497.94,-217.39C534.46,-198.67 598.34,-166.95 654.99,-144 692.28,-128.89 735.69,-114.47 767.4,-104.5"/>
<polygon fill="black" stroke="black" points="768.76,-107.74 777.26,-101.42 766.67,-101.06 768.76,-107.74"/>
</g>
<!-- typechecker_z&#45;&gt;corejava_z -->
<g id="edge57" class="edge">
<title>typechecker_z&#45;&gt;corejava_z</title>
<path fill="none" stroke="black" d="M511.11,-219C584.71,-195.19 728.96,-148.9 752.99,-144 916.67,-110.64 1113.2,-97.98 1215.11,-93.41"/>
<polygon fill="black" stroke="black" points="1215.43,-96.9 1225.26,-92.97 1215.12,-89.91 1215.43,-96.9"/>
</g>
<!-- typechecker_z&#45;&gt;parser_z -->
<g id="edge58" class="edge">
<title>typechecker_z&#45;&gt;parser_z</title>
<path fill="none" stroke="black" d="M524.03,-221.6C589.26,-208.32 696.16,-186.57 759.74,-173.63"/>
<polygon fill="black" stroke="black" points="760.46,-177.06 769.56,-171.63 759.06,-170.2 760.46,-177.06"/>
</g>
<!-- typechecker_zeves -->
<g id="node22" class="node">
<title>typechecker_zeves</title>
<ellipse fill="none" stroke="black" cx="209.99" cy="-306" rx="97.48" ry="18"/>
<text text-anchor="middle" x="209.99" y="-302.3" font-family="Times,serif" font-size="14.00">typechecker_zeves</text>
</g>
<!-- typechecker_zeves&#45;&gt;corejava_zeves -->
<g id="edge59" class="edge">
<title>typechecker_zeves&#45;&gt;corejava_zeves</title>
<path fill="none" stroke="black" d="M197.71,-288.13C185.86,-269.61 171.42,-239.4 183.99,-216 191.49,-202.03 204.47,-191.13 217.82,-182.94"/>
<polygon fill="black" stroke="black" points="219.63,-185.93 226.59,-177.94 216.16,-179.85 219.63,-185.93"/>
</g>
<!-- typechecker_zeves&#45;&gt;parser_z -->
<g id="edge60" class="edge">
<title>typechecker_zeves&#45;&gt;parser_z</title>
<path fill="none" stroke="black" d="M259.58,-290.45C285.83,-281.53 317.94,-268.61 343.99,-252 363.61,-239.49 360.95,-225.92 381.99,-216 446.29,-185.69 650.04,-171.25 752.27,-165.76"/>
<polygon fill="black" stroke="black" points="752.63,-169.25 762.44,-165.23 752.27,-162.26 752.63,-169.25"/>
</g>
<!-- typechecker_zeves&#45;&gt;parser_zeves -->
<g id="edge61" class="edge">
<title>typechecker_zeves&#45;&gt;parser_zeves</title>
<path fill="none" stroke="black" d="M223.06,-288.05C229.56,-279.63 237.55,-269.28 244.73,-259.97"/>
<polygon fill="black" stroke="black" points="247.7,-261.84 251.04,-251.79 242.16,-257.57 247.7,-261.84"/>
</g>
<!-- typechecker_zeves&#45;&gt;typechecker_z -->
<g id="edge62" class="edge">
<title>typechecker_zeves&#45;&gt;typechecker_z</title>
<path fill="none" stroke="black" d="M262.51,-290.75C305.38,-279.12 365.9,-262.7 410.15,-250.69"/>
<polygon fill="black" stroke="black" points="411.16,-254.05 419.9,-248.05 409.33,-247.29 411.16,-254.05"/>
</g>
<!-- typechecker_oz -->
<g id="node23" class="node">
<title>typechecker_oz</title>
<ellipse fill="none" stroke="black" cx="648.99" cy="-378" rx="81.79" ry="18"/>
<text text-anchor="middle" x="648.99" y="-374.3" font-family="Times,serif" font-size="14.00">typechecker_oz</text>
</g>
<!-- typechecker_oz&#45;&gt;parser_z -->
<g id="edge63" class="edge">
<title>typechecker_oz&#45;&gt;parser_z</title>
<path fill="none" stroke="black" d="M645.68,-359.8C640.57,-327.78 634.53,-258.43 667.99,-216 688.74,-189.69 723.86,-176.44 754.22,-169.77"/>
<polygon fill="black" stroke="black" points="755.19,-173.14 764.31,-167.75 753.82,-166.28 755.19,-173.14"/>
</g>
<!-- typechecker_oz&#45;&gt;parser_oz -->
<g id="edge64" class="edge">
<title>typechecker_oz&#45;&gt;parser_oz</title>
<path fill="none" stroke="black" d="M698.62,-363.59C744.05,-351.31 811,-333.21 856.89,-320.81"/>
<polygon fill="black" stroke="black" points="857.89,-324.16 866.64,-318.18 856.07,-317.41 857.89,-324.16"/>
</g>
<!-- typechecker_oz&#45;&gt;typechecker_z -->
<g id="edge65" class="edge">
<title>typechecker_oz&#45;&gt;typechecker_z</title>
<path fill="none" stroke="black" d="M618.23,-361.31C600.27,-351.56 577.57,-338.22 558.99,-324 533.39,-304.4 507.41,-278.24 489.8,-259.35"/>
<polygon fill="black" stroke="black" points="492.37,-256.98 483.02,-252 487.23,-261.72 492.37,-256.98"/>
</g>
<!-- typechecker_circus -->
<g id="node24" class="node">
<title>typechecker_circus</title>
<ellipse fill="none" stroke="black" cx="1015.99" cy="-378" rx="99.38" ry="18"/>
<text text-anchor="middle" x="1015.99" y="-374.3" font-family="Times,serif" font-size="14.00">typechecker_circus</text>
</g>
<!-- typechecker_circus&#45;&gt;corejava_circus -->
<g id="edge66" class="edge">
<title>typechecker_circus&#45;&gt;corejava_circus</title>
<path fill="none" stroke="black" d="M1071.02,-363C1175.81,-336.33 1403.27,-278.45 1512.72,-250.59"/>
<polygon fill="black" stroke="black" points="1513.79,-253.93 1522.62,-248.07 1512.07,-247.15 1513.79,-253.93"/>
</g>
<!-- typechecker_circus&#45;&gt;parser_z -->
<g id="edge67" class="edge">
<title>typechecker_circus&#45;&gt;parser_z</title>
<path fill="none" stroke="black" d="M1010.34,-360.01C1003.51,-341.12 990.69,-310.32 972.99,-288 937.22,-242.88 881.88,-204.62 846.3,-182.73"/>
<polygon fill="black" stroke="black" points="848.07,-179.71 837.7,-177.52 844.44,-185.69 848.07,-179.71"/>
</g>
<!-- typechecker_circus&#45;&gt;parser_circus -->
<g id="edge68" class="edge">
<title>typechecker_circus&#45;&gt;parser_circus</title>
<path fill="none" stroke="black" d="M1106.2,-370.41C1222.74,-361.56 1431.8,-344.56 1609.99,-324 1626,-322.15 1643.18,-319.89 1659.38,-317.62"/>
<polygon fill="black" stroke="black" points="1659.92,-321.08 1669.33,-316.22 1658.94,-314.15 1659.92,-321.08"/>
</g>
<!-- typechecker_circus&#45;&gt;typechecker_z -->
<g id="edge69" class="edge">
<title>typechecker_circus&#45;&gt;typechecker_z</title>
<path fill="none" stroke="black" d="M961.44,-362.87C858.11,-336.09 634.61,-278.18 527.53,-250.43"/>
<polygon fill="black" stroke="black" points="528.1,-246.96 517.54,-247.84 526.34,-253.74 528.1,-246.96"/>
</g>
<!-- rules -->
<g id="node25" class="node">
<title>rules</title>
<ellipse fill="none" stroke="black" cx="472.99" cy="-306" rx="34.39" ry="18"/>
<text text-anchor="middle" x="472.99" y="-302.3" font-family="Times,serif" font-size="14.00">rules</text>
</g>
<!-- rules&#45;&gt;parser_zpatt -->
<g id="edge70" class="edge">
<title>rules&#45;&gt;parser_zpatt</title>
<path fill="none" stroke="black" d="M503.36,-297.24C548.05,-285.82 632.36,-264.29 689.11,-249.79"/>
<polygon fill="black" stroke="black" points="690.2,-253.12 699.02,-247.26 688.46,-246.34 690.2,-253.12"/>
</g>
<!-- rules&#45;&gt;typechecker_z -->
<g id="edge71" class="edge">
<title>rules&#45;&gt;typechecker_z</title>
<path fill="none" stroke="black" d="M471.75,-287.7C471.2,-279.98 470.54,-270.71 469.93,-262.11"/>
<polygon fill="black" stroke="black" points="473.42,-261.83 469.21,-252.1 466.43,-262.33 473.42,-261.83"/>
</g>
<!-- zlive -->
<g id="node26" class="node">
<title>zlive</title>
<ellipse fill="none" stroke="black" cx="247.99" cy="-378" rx="32.49" ry="18"/>
<text text-anchor="middle" x="247.99" y="-374.3" font-family="Times,serif" font-size="14.00">zlive</text>
</g>
<!-- zlive&#45;&gt;parser_z -->
<g id="edge72" class="edge">
<title>zlive&#45;&gt;parser_z</title>
<path fill="none" stroke="black" d="M271.17,-365.04C312.77,-343.69 398.66,-300.11 429.99,-288 483.52,-267.32 504.02,-280.21 553.99,-252 574.53,-240.4 572.19,-227.13 592.99,-216 621.24,-200.88 703,-183.41 758.23,-172.79"/>
<polygon fill="black" stroke="black" points="759.04,-176.2 768.21,-170.89 757.73,-169.32 759.04,-176.2"/>
</g>
<!-- zlive&#45;&gt;rules -->
<g id="edge73" class="edge">
<title>zlive&#45;&gt;rules</title>
<path fill="none" stroke="black" d="M273.12,-366.24C278.63,-364.04 284.47,-361.85 289.99,-360 348.88,-340.31 365.68,-342.38 424.99,-324 428.58,-322.89 432.3,-321.68 436.01,-320.43"/>
<polygon fill="black" stroke="black" points="437.39,-323.66 445.7,-317.09 435.11,-317.04 437.39,-323.66"/>
</g>
<!-- gaffe -->
<g id="node27" class="node">
<title>gaffe</title>
<ellipse fill="none" stroke="black" cx="195.99" cy="-450" rx="33.6" ry="18"/>
<text text-anchor="middle" x="195.99" y="-446.3" font-family="Times,serif" font-size="14.00">gaffe</text>
</g>
<!-- gaffe&#45;&gt;zlive -->
<g id="edge74" class="edge">
<title>gaffe&#45;&gt;zlive</title>
<path fill="none" stroke="black" d="M207.79,-433.12C214.37,-424.26 222.71,-413.04 230.08,-403.12"/>
<polygon fill="black" stroke="black" points="233.08,-404.94 236.24,-394.82 227.46,-400.76 233.08,-404.94"/>
</g>
<!-- gaffe2 -->
<g id="node28" class="node">
<title>gaffe2</title>
<ellipse fill="none" stroke="black" cx="286.99" cy="-450" rx="39.79" ry="18"/>
<text text-anchor="middle" x="286.99" y="-446.3" font-family="Times,serif" font-size="14.00">gaffe2</text>
</g>
<!-- gaffe2&#45;&gt;zlive -->
<g id="edge75" class="edge">
<title>gaffe2&#45;&gt;zlive</title>
<path fill="none" stroke="black" d="M277.75,-432.41C273.09,-424.04 267.33,-413.71 262.12,-404.37"/>
<polygon fill="black" stroke="black" points="265.09,-402.5 257.17,-395.47 258.98,-405.91 265.09,-402.5"/>
</g>
<!-- vcg_z -->
<g id="node29" class="node">
<title>vcg_z</title>
<ellipse fill="none" stroke="black" cx="85.99" cy="-378" rx="36.29" ry="18"/>
<text text-anchor="middle" x="85.99" y="-374.3" font-family="Times,serif" font-size="14.00">vcg_z</text>
</g>
<!-- vcg_z&#45;&gt;session -->
<g id="edge76" class="edge">
<title>vcg_z&#45;&gt;session</title>
<path fill="none" stroke="black" d="M65.36,-362.91C53.45,-353.46 39.56,-339.87 32.99,-324 2.38,-250.09 -22.08,-202.03 32.99,-144 85.61,-88.55 644.08,-116.96 719.99,-108 734.14,-106.33 749.39,-103.81 763.33,-101.21"/>
<polygon fill="black" stroke="black" points="764.05,-104.64 773.22,-99.32 762.74,-97.77 764.05,-104.64"/>
</g>
<!-- vcg_z&#45;&gt;corejava_z -->
<g id="edge77" class="edge">
<title>vcg_z&#45;&gt;corejava_z</title>
<path fill="none" stroke="black" d="M84.14,-359.96C82.68,-341.82 81.79,-312.42 87.99,-288 106.39,-215.52 109.58,-180.23 174.99,-144 186.43,-137.67 975.49,-103.98 1215.49,-93.87"/>
<polygon fill="black" stroke="black" points="1215.98,-97.35 1225.83,-93.44 1215.69,-90.36 1215.98,-97.35"/>
</g>
<!-- vcg_z&#45;&gt;parser_z -->
<g id="edge78" class="edge">
<title>vcg_z&#45;&gt;parser_z</title>
<path fill="none" stroke="black" d="M86.31,-359.82C87.34,-341.03 91.09,-310.59 103.99,-288 127.71,-246.46 140.09,-235 183.99,-216 284.91,-172.32 614.54,-164.56 751.49,-163.24"/>
<polygon fill="black" stroke="black" points="751.82,-166.74 761.79,-163.15 751.76,-159.74 751.82,-166.74"/>
</g>
<!-- vcg_z&#45;&gt;typechecker_z -->
<g id="edge79" class="edge">
<title>vcg_z&#45;&gt;typechecker_z</title>
<path fill="none" stroke="black" d="M114.35,-366.64C121.37,-364.28 128.91,-361.9 135.99,-360 214.78,-338.82 242.43,-359.28 315.99,-324 338.46,-313.22 338.07,-301.55 358.99,-288 378.89,-275.11 402.38,-263.3 422.45,-254.12"/>
<polygon fill="black" stroke="black" points="424.02,-257.25 431.7,-249.96 421.15,-250.87 424.02,-257.25"/>
</g>
<!-- vcg_z&#45;&gt;typechecker_zeves -->
<g id="edge80" class="edge">
<title>vcg_z&#45;&gt;typechecker_zeves</title>
<path fill="none" stroke="black" d="M109.02,-364C126.72,-354.01 151.53,-340 172.13,-328.37"/>
<polygon fill="black" stroke="black" points="173.97,-331.35 180.96,-323.39 170.53,-325.26 173.97,-331.35"/>
</g>
<!-- z2b -->
<g id="node30" class="node">
<title>z2b</title>
<ellipse fill="none" stroke="black" cx="416.99" cy="-378" rx="27.1" ry="18"/>
<text text-anchor="middle" x="416.99" y="-374.3" font-family="Times,serif" font-size="14.00">z2b</text>
</g>
<!-- z2b&#45;&gt;rules -->
<g id="edge81" class="edge">
<title>z2b&#45;&gt;rules</title>
<path fill="none" stroke="black" d="M429.14,-361.81C436.35,-352.8 445.65,-341.18 453.83,-330.95"/>
<polygon fill="black" stroke="black" points="456.57,-333.13 460.08,-323.13 451.1,-328.76 456.57,-333.13"/>
</g>
<!-- z2alloy -->
<g id="node31" class="node">
<title>z2alloy</title>
<ellipse fill="none" stroke="black" cx="505.99" cy="-378" rx="43.59" ry="18"/>
<text text-anchor="middle" x="505.99" y="-374.3" font-family="Times,serif" font-size="14.00">z2alloy</text>
</g>
<!-- z2alloy&#45;&gt;rules -->
<g id="edge82" class="edge">
<title>z2alloy&#45;&gt;rules</title>
<path fill="none" stroke="black" d="M498,-360.05C494.19,-351.97 489.55,-342.12 485.3,-333.11"/>
<polygon fill="black" stroke="black" points="488.34,-331.34 480.9,-323.79 482,-334.33 488.34,-331.34"/>
</g>
<!-- zeves -->
<g id="node32" class="node">
<title>zeves</title>
<ellipse fill="none" stroke="black" cx="334.99" cy="-378" rx="36.29" ry="18"/>
<text text-anchor="middle" x="334.99" y="-374.3" font-family="Times,serif" font-size="14.00">zeves</text>
</g>
<!-- zeves&#45;&gt;parser_z -->
<g id="edge83" class="edge">
<title>zeves&#45;&gt;parser_z</title>
<path fill="none" stroke="black" d="M363.07,-366.15C368.95,-364.01 375.15,-361.85 380.99,-360 440.18,-341.22 460.88,-352.61 515.99,-324 582.36,-289.55 579.45,-251.99 644.99,-216 681.03,-196.21 725.56,-182.54 759.58,-174.05"/>
<polygon fill="black" stroke="black" points="760.43,-177.45 769.32,-171.69 758.78,-170.64 760.43,-177.45"/>
</g>
<!-- zeves&#45;&gt;typechecker_zeves -->
<g id="edge84" class="edge">
<title>zeves&#45;&gt;typechecker_zeves</title>
<path fill="none" stroke="black" d="M311.77,-364C293.94,-354.01 268.92,-340 248.16,-328.37"/>
<polygon fill="black" stroke="black" points="249.69,-325.22 239.25,-323.39 246.27,-331.33 249.69,-325.22"/>
</g>
<!-- ui -->
<g id="node33" class="node">
<title>ui</title>
<ellipse fill="none" stroke="black" cx="751.99" cy="-450" rx="27" ry="18"/>
<text text-anchor="middle" x="751.99" y="-446.3" font-family="Times,serif" font-size="14.00">ui</text>
</g>
<!-- ui&#45;&gt;zml -->
<g id="edge85" class="edge">
<title>ui&#45;&gt;zml</title>
<path fill="none" stroke="black" d="M779.26,-448.11C841.68,-445.44 999.16,-435.05 1123.99,-396 1294.34,-342.72 1322.4,-293.9 1482.99,-216 1627.63,-145.83 1802.06,-65.32 1871.89,-33.25"/>
<polygon fill="black" stroke="black" points="1873.4,-36.41 1881.03,-29.05 1870.48,-30.04 1873.4,-36.41"/>
</g>
<!-- ui&#45;&gt;corejava_circuspatt -->
<g id="edge86" class="edge">
<title>ui&#45;&gt;corejava_circuspatt</title>
<path fill="none" stroke="black" d="M779.1,-448.92C904.82,-448.29 1427.16,-442.88 1480.99,-396 1498.26,-380.96 1502.06,-354.42 1502.12,-334.22"/>
<polygon fill="black" stroke="black" points="1505.61,-333.95 1501.84,-324.05 1498.61,-334.14 1505.61,-333.95"/>
</g>
<!-- ui&#45;&gt;parser_ozpatt -->
<g id="edge87" class="edge">
<title>ui&#45;&gt;parser_ozpatt</title>
<path fill="none" stroke="black" d="M766.56,-434.83C776.04,-425.62 788.64,-413.37 799.62,-402.69"/>
<polygon fill="black" stroke="black" points="802.18,-405.09 806.91,-395.61 797.3,-400.07 802.18,-405.09"/>
</g>
<!-- ui&#45;&gt;typechecker_oz -->
<g id="edge88" class="edge">
<title>ui&#45;&gt;typechecker_oz</title>
<path fill="none" stroke="black" d="M733.58,-436.49C719.19,-426.71 698.82,-412.87 681.68,-401.22"/>
<polygon fill="black" stroke="black" points="683.3,-398.09 673.06,-395.36 679.37,-403.88 683.3,-398.09"/>
</g>
<!-- ui&#45;&gt;typechecker_circus -->
<g id="edge89" class="edge">
<title>ui&#45;&gt;typechecker_circus</title>
<path fill="none" stroke="black" d="M776.83,-442.41C816.66,-431.85 896.09,-410.79 952.46,-395.84"/>
<polygon fill="black" stroke="black" points="953.59,-399.17 962.36,-393.22 951.79,-392.4 953.59,-399.17"/>
</g>
<!-- ui&#45;&gt;zlive -->
<g id="edge90" class="edge">
<title>ui&#45;&gt;zlive</title>
<path fill="none" stroke="black" d="M725.86,-444.48C704.02,-440.79 672.04,-435.63 643.99,-432 487.15,-411.7 443.49,-434.05 289.99,-396 287.36,-395.35 284.68,-394.56 282.01,-393.7"/>
<polygon fill="black" stroke="black" points="283.07,-390.36 272.48,-390.26 280.7,-396.94 283.07,-390.36"/>
</g>
<!-- ui&#45;&gt;vcg_z -->
<g id="edge91" class="edge">
<title>ui&#45;&gt;vcg_z</title>
<path fill="none" stroke="black" d="M726.32,-444.41C704.48,-440.64 672.26,-435.38 643.99,-432 450.49,-408.83 400.67,-417.57 206.99,-396 181.49,-393.16 153.07,-389.21 130.18,-385.83"/>
<polygon fill="black" stroke="black" points="130.49,-382.34 120.09,-384.32 129.46,-389.26 130.49,-382.34"/>
</g>
<!-- ui&#45;&gt;zeves -->
<g id="edge92" class="edge">
<title>ui&#45;&gt;zeves</title>
<path fill="none" stroke="black" d="M725.82,-444.73C703.97,-441.2 671.97,-436.12 643.99,-432 527.27,-414.83 495.45,-424.62 380.99,-396 378.03,-395.26 375,-394.39 371.97,-393.45"/>
<polygon fill="black" stroke="black" points="373.01,-390.11 362.41,-390.24 370.78,-396.74 373.01,-390.11"/>
</g>
<!-- ZSideKick -->
<g id="node34" class="node">
<title>ZSideKick</title>
<ellipse fill="none" stroke="black" cx="85.99" cy="-450" rx="57.69" ry="18"/>
<text text-anchor="middle" x="85.99" y="-446.3" font-family="Times,serif" font-size="14.00">ZSideKick</text>
</g>
<!-- ZSideKick&#45;&gt;corejava_zeves -->
<g id="edge93" class="edge">
<title>ZSideKick&#45;&gt;corejava_zeves</title>
<path fill="none" stroke="black" d="M67.02,-432.92C57.22,-423.34 46.23,-410.28 40.99,-396 35.47,-380.98 36.81,-375.45 40.99,-360 60.33,-288.47 68.49,-263.93 124.99,-216 145.85,-198.3 173.25,-186.17 198.21,-178.04"/>
<polygon fill="black" stroke="black" points="199.48,-181.31 207.99,-175.01 197.41,-174.62 199.48,-181.31"/>
</g>
<!-- ZSideKick&#45;&gt;corejava_circus -->
<g id="edge94" class="edge">
<title>ZSideKick&#45;&gt;corejava_circus</title>
<path fill="none" stroke="black" d="M100.06,-432.4C121.39,-407.3 159.89,-362.35 163.99,-360 237.81,-317.71 270.99,-350.02 351.99,-324 388.34,-312.32 392.9,-297.05 429.99,-288 433.19,-287.22 1215.81,-251.38 1484.6,-239.09"/>
<polygon fill="black" stroke="black" points="1484.88,-242.58 1494.71,-238.62 1484.56,-235.58 1484.88,-242.58"/>
</g>
<!-- ZSideKick&#45;&gt;typechecker_oz -->
<g id="edge95" class="edge">
<title>ZSideKick&#45;&gt;typechecker_oz</title>
<path fill="none" stroke="black" d="M127.59,-437.35C135.95,-435.32 144.71,-433.41 152.99,-432 331.58,-401.63 379.55,-420.84 558.99,-396 566.14,-395.01 573.58,-393.84 580.98,-392.58"/>
<polygon fill="black" stroke="black" points="581.79,-395.99 591.03,-390.81 580.58,-389.1 581.79,-395.99"/>
</g>
<!-- ZSideKick&#45;&gt;rules -->
<g id="edge96" class="edge">
<title>ZSideKick&#45;&gt;rules</title>
<path fill="none" stroke="black" d="M109.97,-433.6C125.63,-423.33 146.35,-409.32 163.99,-396 183.88,-380.98 184.34,-370.4 206.99,-360 296.24,-319.03 329.89,-348.49 424.99,-324 428.78,-323.02 432.7,-321.88 436.58,-320.65"/>
<polygon fill="black" stroke="black" points="437.71,-323.96 446.09,-317.47 435.49,-317.32 437.71,-323.96"/>
</g>
<!-- ZSideKick&#45;&gt;vcg_z -->
<g id="edge97" class="edge">
<title>ZSideKick&#45;&gt;vcg_z</title>
<path fill="none" stroke="black" d="M85.99,-431.7C85.99,-423.98 85.99,-414.71 85.99,-406.11"/>
<polygon fill="black" stroke="black" points="89.49,-406.1 85.99,-396.1 82.49,-406.1 89.49,-406.1"/>
</g>
<!-- ZLivePlugin -->
<g id="node35" class="node">
<title>ZLivePlugin</title>
<ellipse fill="none" stroke="black" cx="410.99" cy="-450" rx="66.09" ry="18"/>
<text text-anchor="middle" x="410.99" y="-446.3" font-family="Times,serif" font-size="14.00">ZLivePlugin</text>
</g>
<!-- ZLivePlugin&#45;&gt;zlive -->
<g id="edge98" class="edge">
<title>ZLivePlugin&#45;&gt;zlive</title>
<path fill="none" stroke="black" d="M377.22,-434.5C349.44,-422.57 310.24,-405.73 282.32,-393.74"/>
<polygon fill="black" stroke="black" points="283.51,-390.45 272.94,-389.72 280.75,-396.88 283.51,-390.45"/>
</g>
<!-- ZEvesPlugin -->
<g id="node36" class="node">
<title>ZEvesPlugin</title>
<ellipse fill="none" stroke="black" cx="564.99" cy="-450" rx="69.59" ry="18"/>
<text text-anchor="middle" x="564.99" y="-446.3" font-family="Times,serif" font-size="14.00">ZEvesPlugin</text>
</g>
<!-- ZEvesPlugin&#45;&gt;zeves -->
<g id="edge99" class="edge">
<title>ZEvesPlugin&#45;&gt;zeves</title>
<path fill="none" stroke="black" d="M518.19,-436.54C480.83,-426.35 427.26,-411.19 380.99,-396 378.26,-395.1 375.45,-394.15 372.63,-393.16"/>
<polygon fill="black" stroke="black" points="373.69,-389.83 363.09,-389.76 371.33,-396.42 373.69,-389.83"/>
</g>
</g>
</svg>
